<svg width="52" height="81" viewBox="0 0 52 81" fill="none" xmlns="http://www.w3.org/2000/svg">
<path d="M17.4942 19.9094C16.5907 18.6937 16.5645 18.1151 17.4796 16.8935C17.7419 16.5458 17.7098 16.2185 17.6224 15.897C17.2873 14.6988 16.9113 13.527 16.0312 12.5655C14.8946 11.3206 13.828 10.0143 12.741 8.72259C11.6656 7.4426 11.1848 6.01064 11.7181 4.35074C12.0795 3.2227 12.3913 3.00353 13.5949 3.0386C13.9125 3.04736 14.2302 3.11458 14.4954 3.14964C16.3459 1.35531 18.4297 0.198059 21.0671 0.376323C21.5334 0.408469 21.9967 0.539974 22.4484 0.674403C23.7045 1.04554 24.9197 1.10107 26.1729 0.575044C26.8694 0.279885 27.6475 0.1513 28.3994 0.0285611C29.2474 -0.10879 29.8827 0.253583 30.3024 1.02216C30.69 1.7323 30.7541 1.74691 31.5643 1.60079C32.3191 1.46637 33.0826 1.36116 33.8257 1.1829C34.9244 0.919883 35.8657 1.33486 36.7692 1.84335C37.0023 1.97485 37.1567 2.35476 37.2296 2.64992C37.4861 3.65814 38.4536 4.17247 39.3803 3.74873C39.596 3.64937 39.8 3.52371 40.0215 3.44773C41.056 3.0912 42.0906 3.75165 42.2188 4.85046C42.2917 5.45831 42.1955 6.04863 41.8546 6.55712C41.1784 7.56241 40.5256 8.59401 39.7592 9.52916C38.0252 11.6537 36.5477 13.9273 35.4228 16.4318C35.3382 16.6188 35.2566 16.8088 35.1576 17.0279C35.7288 17.5423 35.9532 18.1881 35.822 18.9596C36.2825 19.211 36.7109 19.4652 37.1538 19.6873C39.7417 20.979 41.4728 23.1152 42.9037 25.5437C43.1893 26.0288 43.4195 26.5461 43.6876 27.04C44.4308 28.4135 44.8679 29.8747 45.0195 31.4294C45.1273 32.5311 45.4275 33.5802 45.9404 34.565C46.0074 34.6966 46.0744 34.8281 46.1327 34.9654C47.0915 37.2273 48.129 39.46 48.9829 41.7599C50.303 45.3164 51.3638 48.9606 51.8826 52.7305C52.0283 53.7796 52.0312 54.8725 51.9088 55.9246C51.6931 57.7978 51.9817 59.6506 51.9904 61.5151C51.9962 62.8477 52.0516 64.1657 51.8126 65.4953C51.5125 67.1582 50.8859 68.669 50.0116 70.0981C47.7356 73.8095 44.5124 76.425 40.5927 78.193C39.5843 78.6489 38.4536 78.8476 37.3695 79.1252C36.0552 79.4584 34.7321 79.7594 33.409 80.0575C32.4589 80.2708 31.5089 80.5017 30.5443 80.6361C29.3902 80.7968 28.2566 80.5689 27.1258 80.3088C24.8556 79.7886 22.5825 79.2684 20.2919 78.8505C18.3743 78.4999 16.4334 78.3946 14.475 78.3888C11.3305 78.3771 8.48033 77.3455 6.05566 75.332C4.94532 74.4115 4.00401 73.2834 2.99859 72.2372C2.8179 72.0473 2.65178 71.8223 2.54686 71.5826C1.65218 69.5896 0.707959 67.6316 0.270818 65.4427C-0.297464 62.5905 0.116377 59.8523 0.70506 57.0877C1.68717 52.4762 3.10349 47.9845 4.44114 43.4724C5.03856 41.4531 5.66805 39.4512 6.50153 37.5137C7.26798 35.7311 8.20056 34.0478 9.37502 32.5165C11.9775 29.1236 14.3497 25.5846 16.4042 21.8323C16.7306 21.2362 17.0978 20.6575 17.4417 20.0701C17.4709 20.0204 17.4767 19.9591 17.4913 19.9006L17.4942 19.9094ZM34.8603 26.9815C34.6417 26.3123 34.4319 25.6402 34.1988 24.9768C33.6217 23.3286 33.0476 21.6803 32.4444 20.0438C32.3628 19.8217 32.1675 19.5499 31.9664 19.4857C31.3369 19.2811 30.6812 19.1759 29.8449 19.3045C31.9111 21.2537 32.2958 23.5594 31.8324 26.099C31.2058 25.0089 31.0834 23.7523 30.6434 22.6097C30.1887 21.4261 29.6263 20.2864 29.0842 19.0678C28.4402 19.0181 27.8049 18.9684 27.0734 18.9129C27.3794 19.9328 27.7203 20.8153 27.8981 21.73C28.073 22.6243 28.1254 23.5536 28.1458 24.4683C28.1633 25.3859 28.1983 26.3269 27.6766 27.1919C26.8169 24.5297 27.1113 21.692 26.4118 18.9421C25.8989 18.9947 25.3831 19.0444 24.8527 19.0999C24.5846 20.5202 24.2932 21.8761 24.0746 23.2438C23.8589 24.5939 23.719 25.9587 23.5471 27.3147C23.4801 27.3264 23.4131 27.338 23.346 27.3497C23.1916 27.0487 22.9555 26.7623 22.9001 26.4438C22.8069 25.9236 22.7836 25.383 22.8098 24.854C22.8885 23.2117 23.3023 21.6394 23.8473 20.0964C23.9493 19.8042 24.0338 19.5061 24.1533 19.132C23.4538 19.1525 22.8972 18.9947 22.4805 19.661C20.5949 22.6856 18.9105 25.8067 17.6953 29.1704C17.6224 29.3691 17.5029 29.5532 17.4038 29.7431C17.3455 29.7139 17.2843 29.6847 17.2261 29.6555C17.2902 25.7746 19.4351 22.709 21.3935 19.4447C20.4405 19.6581 19.6128 19.8451 18.8143 20.0234C16.3343 25.3771 14.1486 28.7788 11.7152 31.8531C9.03404 35.2401 7.28548 39.0421 6.16932 43.1802C5.83709 44.4105 5.47862 45.632 5.09685 46.8477C3.8408 50.8601 2.51189 54.8521 1.80081 59.0106C1.50938 60.7114 1.34911 62.4239 1.61139 64.1394C1.89408 65.9863 2.4099 67.7572 3.20549 69.4756C3.79126 70.741 4.4703 71.8719 5.49612 72.8042C5.80212 73.0818 6.08188 73.3916 6.37622 73.6838C8.59106 75.8697 11.2897 76.9773 14.3613 76.9744C16.8006 76.9744 19.1932 77.2608 21.5771 77.6699C23.4364 77.9884 25.2869 78.4005 27.0996 78.9119C28.7753 79.3853 30.4219 79.4029 32.0888 79.0288C33.3828 78.7395 34.6534 78.3391 35.9532 78.0878C40.5286 77.1994 44.2151 74.8674 47.1789 71.3079C49.3646 68.6807 50.5945 65.7233 50.3992 62.2457C50.3234 60.916 50.2739 59.5834 50.2302 58.2508C50.2098 57.5991 50.1544 56.9357 50.2506 56.2957C50.4662 54.8375 50.37 53.3851 50.1223 51.9619C49.5599 48.7473 48.674 45.6087 47.6015 42.5314C47.0186 40.8569 46.2376 39.2525 45.5528 37.6131C45.1302 36.6019 44.6872 35.5996 44.3084 34.5709C44.0228 33.7965 43.7576 33.0045 43.6031 32.1979C43.335 30.7747 43.233 29.3165 42.5394 28.0014C42.178 27.3205 41.8866 26.6016 41.4874 25.9441C40.1905 23.7991 38.6693 21.8586 36.4136 20.6283C36.1805 20.4997 35.9328 20.3741 35.7492 20.1899C34.9681 19.4155 34.0501 19.6552 33.103 19.7224C34.6767 23.0013 35.2771 25.2719 34.8574 26.9844L34.8603 26.9815ZM20.0238 12.8285C19.9655 12.8694 19.9072 12.9103 19.8489 12.9513C19.5604 12.6064 19.2194 12.2937 18.9979 11.908C18.1528 10.4497 17.3776 8.95054 16.5121 7.50397C15.8156 6.34087 15.2939 5.06671 14.3846 4.03512C14.1894 3.81302 14.0524 3.5354 13.6852 3.59092C13.2568 3.65521 13.2335 4.02343 13.1606 4.32736C12.8547 5.64534 13.0849 6.83767 13.9621 7.91017C15.0491 9.23693 16.0866 10.6017 17.1532 11.946C18.1703 13.2289 18.7852 14.6638 18.8172 16.3412C19.0475 16.3412 19.2515 16.3675 19.4467 16.3383C20.6707 16.1483 21.886 15.897 23.1129 15.7567C24.605 15.5843 26.1087 15.4528 27.6096 15.4002C28.7549 15.3622 29.9148 15.3943 31.0484 15.5463C31.9694 15.669 32.8582 16.008 33.7791 16.2594C33.7908 16.2448 33.8403 16.2097 33.8665 16.1571C33.9365 16.0285 33.9977 15.8912 34.0618 15.7596C35.0934 13.6117 36.3233 11.5982 37.9232 9.8214C38.6372 9.02944 39.3599 8.24625 40.0156 7.40753C40.412 6.89904 40.7151 6.31164 41.0123 5.73594C41.2222 5.32388 41.2688 4.85046 40.9278 4.48224C40.5664 4.09357 40.2138 4.45302 39.8933 4.61083C39.0481 5.02288 38.2438 4.99366 37.4569 4.47347C37.2908 4.36243 37.1189 4.26307 37.0081 4.19585C36.3611 5.68333 35.7812 7.17082 35.0731 8.59401C34.3707 10.0084 33.5547 11.3703 32.3686 12.4691C32.3191 12.2411 32.3016 12.0307 32.3686 11.8554C32.6396 11.1686 32.8961 10.4702 33.237 9.81848C34.056 8.24332 34.9215 6.68863 35.7637 5.12516C35.8541 4.95567 35.924 4.77156 36.0027 4.59622C35.0847 5.26251 34.3328 6.08077 33.2546 6.47822C32.2025 6.86689 31.1854 7.36369 29.9643 6.95456C29.9031 7.41337 29.8507 7.8225 29.7953 8.22579C29.6175 9.48533 29.4514 10.7478 29.2474 12.0015C29.2008 12.2966 29.023 12.5713 28.9035 12.8548C28.8307 12.8548 28.7578 12.8548 28.685 12.8548C28.58 12.5743 28.4169 12.3025 28.3848 12.0132C28.3411 11.6362 28.3527 11.2387 28.4227 10.8618C28.6558 9.58177 28.9065 8.30469 29.1921 7.03347C29.2911 6.59511 29.2124 6.31749 28.8511 6.04278C28.4635 5.74763 28.1109 5.73594 27.7058 5.95804C27.0821 6.29995 26.4585 6.63603 25.829 6.96625C24.6895 7.56241 23.4743 7.60333 22.1803 7.34031C22.2736 7.7699 22.3319 8.11766 22.428 8.45373C22.6991 9.39181 22.9876 10.324 23.2703 11.2592C23.4597 11.8846 23.4276 12.5071 23.3518 13.1617C23.1916 13.1149 23.1245 13.1149 23.0896 13.0798C23.0255 13.0214 22.9642 12.9483 22.9293 12.8694C22.1512 11.23 21.4925 9.5467 21.4605 7.69976C21.443 6.75584 21.5246 5.809 21.5654 4.86507C21.5945 4.21631 21.3935 3.93576 20.7552 3.8101C20.1345 3.68736 19.5021 3.67567 18.9484 4.02928C18.042 4.6079 17.0862 5.01996 15.9787 5.03749C16.6927 6.3584 17.3951 7.62086 18.0595 8.90378C18.7327 10.2042 19.368 11.5222 20.0208 12.8344L20.0238 12.8285ZM15.1103 3.86855C15.7689 4.3595 16.4654 4.40334 17.1853 4.07896C17.5874 3.89777 17.9692 3.66398 18.348 3.43604C19.3331 2.8428 20.3589 2.81942 21.4109 3.20809C22.122 3.46818 22.3319 3.77211 22.3377 4.53777C22.3377 4.98197 22.2736 5.42617 22.2998 5.86744C22.3377 6.47822 22.53 6.60388 23.1478 6.62141C24.3544 6.65064 25.4122 6.19475 26.3739 5.54598C27.7029 4.64882 28.9268 4.57868 30.1275 5.74763C30.4976 6.10708 30.9523 6.12753 31.4506 5.97265C32.8262 5.54598 34.0909 4.95274 35.076 3.85101C35.3091 3.588 35.6034 3.38051 35.8716 3.14964C36.2388 2.83403 36.2271 2.62947 35.8482 2.30801C35.3645 1.89595 34.8166 1.75568 34.2017 1.88426C32.9252 2.15312 31.6488 2.4249 30.3723 2.69376C30.6346 3.71366 31.0368 4.73649 30.7774 6.04278C30.5414 5.6921 30.3519 5.51968 30.3024 5.31219C30.113 4.54069 29.8536 3.7575 29.8507 2.98015C29.8507 2.44536 29.7283 2.0333 29.4718 1.60956C29.0784 0.960796 28.9851 0.876046 28.2682 1.05139C26.9422 1.37869 25.6308 1.7586 24.3136 2.11513C24.7215 3.3396 24.9751 4.57868 24.7624 5.96388C24.0688 5.59274 24.0163 5.00827 23.9464 4.47055C23.8385 3.65521 23.7977 2.82819 23.7278 2.007C19.8576 0.142535 16.7015 1.95732 15.1132 3.86855H15.1103ZM18.0887 17.6387C18.0216 17.9017 17.8759 18.2583 17.8585 18.6236C17.8351 19.0824 18.0741 19.2636 18.5258 19.2402C18.6715 19.2314 18.8114 19.1759 18.9571 19.1467C20.8922 18.7521 22.8011 18.2144 24.7973 18.1969C25.9456 18.1881 27.1025 18.0216 28.242 18.1092C29.7662 18.2261 31.2728 18.5447 32.7941 18.72C33.4585 18.796 34.1376 18.7317 34.7933 18.7317C34.9506 17.9076 34.9477 17.9134 34.3241 17.7761C34.1551 17.7381 33.9511 17.7059 33.8374 17.5949C33.2954 17.0659 32.5872 16.949 31.9111 16.7679C29.3378 16.0869 26.7353 16.4756 24.1591 16.6919C22.1716 16.8584 20.2074 17.2968 18.0916 17.6358L18.0887 17.6387Z" fill="#DEA401"/>
<path d="M29.7708 54.6896C29.548 54.533 29.4457 54.4989 29.4095 54.4305C28.4612 52.6596 27.4196 50.9086 27.9254 48.7959C28.1301 47.9418 28.5124 47.193 29.3734 46.6207C29.5029 46.8741 29.5842 47.0477 29.6775 47.2129C29.9725 47.7396 30.2043 48.3147 30.5897 48.776C31.5229 49.8949 31.541 51.1306 31.0984 52.3606C30.8094 53.1578 30.2525 53.8696 29.7708 54.6896Z" fill="#DEA401"/>
<path d="M24.8909 43.0377C25.143 43.3695 25.3492 43.5737 25.481 43.8258C25.8991 44.633 26.0567 45.5104 25.9822 46.4388C25.8819 47.68 25.6184 48.8541 24.9053 49.8623C24.6561 50.2133 24.4957 50.644 24.2723 51.0173C24.0861 51.3268 23.8684 51.6108 23.5992 52C22.508 50.1558 22.0411 48.35 22.7543 46.3335C22.8574 46.0432 23.035 45.7529 23.2469 45.5518C23.877 44.9552 24.3926 44.2788 24.6905 43.4078C24.7191 43.3184 24.7764 43.2451 24.8909 43.0345V43.0377Z" fill="#DEA401"/>
<path d="M34.069 48.1017C34.4665 47.3231 34.7181 46.6702 35.1099 46.1047C35.6705 45.2934 36.5971 44.9628 37.5522 44.8344C37.9383 44.7825 38.3759 45.0393 38.7848 45.165C39.0021 45.2333 39.2081 45.3234 39.4483 45.4136C39.2824 46.3178 38.902 47.1128 38.3644 47.8395C38.0069 48.3257 37.4035 48.5689 36.9345 48.3066C36.0651 47.8203 35.1757 47.8586 34.069 48.1017Z" fill="#DEA401"/>
<path d="M14.3448 40.6488C14.9546 40.5379 15.4742 40.4107 16.0031 40.3566C16.2987 40.3269 16.644 40.3512 16.9116 40.4567C18.0378 40.9005 18.9899 41.4877 19.2046 42.6782C19.2761 43.0706 19.5157 43.4386 19.7241 43.9311C19.3632 43.858 19.1268 43.8309 18.9059 43.7633C18.2556 43.5576 17.624 43.5631 16.9614 43.7471C16.0093 44.0095 15.4586 43.7822 15.0386 43.0138C14.6435 42.2913 14.4008 41.5337 14.3448 40.6516V40.6488Z" fill="#DEA401"/>
<path d="M17.7741 47.4754C17.3209 47.069 16.812 46.7045 16.4303 46.2465C15.9533 45.6702 16.0593 45.4436 16.7537 45.1013C17.6204 44.6704 18.5242 44.8452 19.4147 44.9757C19.7089 45.0176 19.9077 45.2368 19.9952 45.5372C20.1834 46.1825 20.3981 46.8178 20.6207 47.5172C20.1622 47.3645 19.7328 47.1331 19.2902 47.1035C18.8396 47.0739 18.3705 47.2414 17.9093 47.3227C17.8642 47.3744 17.8192 47.4261 17.7741 47.4778V47.4754Z" fill="#DEA401"/>
<path d="M35.3351 52C34.4447 51.1749 33.3979 51.4334 32.2759 51.7863C32.703 51.0134 33.0189 50.3598 33.425 49.7509C33.5633 49.5446 33.9303 49.316 34.195 49.3135C35.2509 49.3036 36.3338 49.2812 37.2332 49.8876C37.7235 50.2181 37.7957 50.4145 37.4017 50.8295C37.0317 51.2197 36.6617 51.6322 35.9999 51.7391C35.8013 51.7714 35.6209 51.8857 35.3381 52H35.3351Z" fill="#DEA401"/>
<path d="M23.2744 40.3448C23.4241 40.6077 23.5543 40.8857 23.7301 41.1395C24.3811 42.0883 24.3974 43.0129 23.5804 43.7774C22.6885 44.6083 21.9528 45.5118 21.4548 46.6207C21.0674 45.5813 20.4978 44.6144 20.6442 43.4843C20.7386 42.7591 21.0381 42.1941 21.7607 41.759C22.3434 41.4085 22.7666 40.8313 23.2744 40.3448Z" fill="#DEA401"/>
<path d="M31.4452 43.931C31.8649 44.5148 32.2309 45.0777 32.6455 45.5844C33.1931 46.2511 33.2648 47.066 33.0831 47.8542C32.8937 48.672 32.5226 49.4335 32.1592 50.2069C31.8982 49.0898 31.4657 48.1416 30.8745 47.2556C30.2859 46.3756 30.3831 45.4393 31.0153 44.5977C31.1842 44.3725 31.3224 44.1207 31.4426 43.931H31.4452Z" fill="#DEA401"/>
<path d="M36.0727 43.928C35.6909 43.4401 35.3489 43.0643 35.0867 42.6491C34.7547 42.1248 34.4957 41.5641 34.1936 41.0277C33.8915 40.4913 34.177 40.1397 34.6385 39.873C35.4021 39.4336 36.1822 39.0275 37.0553 38.5517C37.2678 39.5245 37.4703 40.4125 37.6496 41.3005C37.6729 41.4096 37.6197 41.549 37.5566 41.649C37.0686 42.4096 36.5707 43.1643 36.0693 43.931L36.0727 43.928Z" fill="#DEA401"/>
<path d="M30.4857 55.5862C30.6543 54.5028 31.0239 53.6121 31.5207 52.7857C31.8903 52.1754 33.7918 51.7812 34.4009 52.1316C34.4512 52.1608 34.4956 52.2046 34.5399 52.2426C35.0663 52.6894 35.1165 53.107 34.6227 53.5946C33.8805 54.3247 33.0998 55.008 32.0145 55.2153C31.5296 55.3088 31.0535 55.446 30.4828 55.5862H30.4857Z" fill="#DEA401"/>
<path d="M18.1689 39.4452C17.7862 38.6265 17.4103 37.8775 17.088 37.1104C17.0041 36.9072 17.0276 36.6343 17.0981 36.419C17.3532 35.6609 17.6486 34.918 17.9641 34.069C18.9477 34.539 19.7398 35.1758 20.4615 35.8732C20.6227 36.0278 20.6562 36.3947 20.5857 36.6222C20.3776 37.2802 19.9345 37.8199 19.3874 38.296C19.0047 38.6296 18.6489 38.9934 18.1689 39.4483V39.4452Z" fill="#DEA401"/>
<path d="M22.4138 52C20.5363 51.6242 19.1065 50.9335 18.1214 49.6923C17.6704 49.1233 18.0574 48.4776 18.8955 48.422C19.5447 48.3796 20.1461 48.5014 20.7346 48.7978C21.3199 49.0942 21.7421 49.4038 21.8636 49.9887C21.998 50.6344 22.2091 51.267 22.4106 52H22.4138Z" fill="#DEA401"/>
<path d="M19.8071 43.0345C19.2186 42.0121 18.5736 41.1943 18.9294 40.106C19.0258 39.8157 19.2186 39.5024 19.4614 39.3211C20.2726 38.7142 20.8977 38.0151 20.9143 36.7586C21.2002 37.0257 21.3997 37.1445 21.4928 37.3159C21.7521 37.7809 21.9649 38.2723 22.201 38.7505C22.5368 39.4365 22.5069 40.007 21.8818 40.4094C20.9176 41.0294 20.1928 41.8044 19.8071 43.0345Z" fill="#DEA401"/>
<path d="M33.6822 41.3199C33.6536 42.2842 34.0608 42.9878 34.6807 43.6269C35.0723 44.0306 35.0048 44.6529 34.8077 45.149C34.6184 45.6256 34.2942 46.0404 33.9467 46.6207C33.843 46.2339 33.804 46.018 33.7262 45.8162C33.511 45.2612 33.2335 44.7678 32.79 44.3641C32.1572 43.7951 32.1313 43.3298 32.5877 42.615C32.8782 42.158 33.1712 41.6983 33.4617 41.2414C33.5343 41.2666 33.6069 41.2947 33.6822 41.3199Z" fill="#DEA401"/>
<path d="M40.342 40.3901C39.5562 40.5519 38.708 40.4483 38.0385 41.2414C37.7379 40.212 37.7038 39.2474 37.6556 38.2893C37.6471 38.108 37.7719 37.8329 37.9109 37.739C38.3988 37.4024 38.9038 37.0852 39.4286 36.8327C39.8626 36.6255 40.1207 36.8618 40.1605 37.4283C40.2257 38.367 40.2768 39.3025 40.3448 40.3868L40.342 40.3901Z" fill="#DEA401"/>
<path d="M17.931 40.3448C17.0958 39.7688 16.3395 39.8143 15.5481 40.078C15.2911 40.1629 14.9494 40.1235 14.6953 40.0174C14.5347 39.9507 14.3741 39.6596 14.3653 39.4626C14.3303 38.5803 14.3507 37.695 14.3507 36.8007C15.3991 36.5945 16.4972 37.1554 17.0608 38.2802C17.3674 38.8956 17.601 39.5535 17.931 40.3448Z" fill="#DEA401"/>
<path d="M16.4305 36.7586C15.914 35.948 15.0708 35.9165 14.3448 35.6714C14.5375 34.6659 14.705 33.7484 14.8865 32.8341C14.9982 32.2779 15.2355 32.1522 15.6822 32.391C15.7827 32.4444 15.8749 32.523 15.967 32.5921C16.9182 33.319 17.2337 34.3088 16.9135 35.5615C16.827 35.8945 16.7293 36.2276 16.6287 36.5544C16.612 36.6047 16.5506 36.6392 16.4277 36.7586H16.4305Z" fill="#DEA401"/>
<path d="M36.7586 44.5047C37.5232 42.5572 38.3202 40.9694 40.3448 41.2805C40.3287 41.4879 40.326 41.6953 40.299 41.8962C40.2102 42.5734 40.089 43.2474 40.0271 43.9279C39.9625 44.644 39.7175 44.9162 39.1306 44.8028C39.0256 44.7833 38.9152 44.7444 38.8209 44.6861C38.199 44.2875 37.5555 44.0964 36.7586 44.5079V44.5047Z" fill="#DEA401"/>
<path d="M27.8177 60.9625C27.2331 60.9746 26.8511 60.639 26.9009 60.116C26.9208 59.9105 27.0039 59.6989 27.1102 59.5145C27.7047 58.4927 28.3093 57.477 28.9237 56.4673C29.0832 56.2043 29.2725 55.9353 29.5117 55.7358C29.8538 55.4486 30.3553 55.5937 30.435 56.0109C30.4982 56.3283 30.5114 56.6971 30.3952 56.9933C29.9734 58.0514 29.505 59.0943 29.0134 60.1251C28.7942 60.5816 28.4487 60.9625 27.8143 60.9655L27.8177 60.9625Z" fill="#DEA401"/>
<path d="M25.1005 56.6974C24.9771 56.8813 24.8713 57.2345 24.6568 57.3192C24.3982 57.4214 23.981 57.3922 23.7576 57.2404C23.4903 57.0565 23.2728 56.7062 23.1759 56.385C22.8908 55.4217 22.644 54.4438 22.4471 53.46C22.3766 53.1039 22.4236 52.6923 22.5353 52.342C22.6646 51.9333 23.0995 51.8866 23.3757 52.2252C23.5402 52.4266 23.6577 52.6806 23.7547 52.9258C24.172 54.003 24.5745 55.0831 24.9771 56.1661C25.027 56.3033 25.0476 56.4522 25.1034 56.7003L25.1005 56.6974Z" fill="#DEA401"/>
<path d="M8.89544 72.6178C8.45399 72.2637 8.06884 72.037 7.80219 71.7197C7.4674 71.3231 7.1741 70.8755 6.96079 70.408C5.97124 68.2322 5.48238 65.943 5.38165 63.5774C5.37276 63.3791 5.39053 63.1779 5.41127 62.9796C5.4172 62.9343 5.47942 62.8918 5.58608 62.7586C5.69274 62.9683 5.82605 63.1382 5.87049 63.3281C6.12528 64.416 6.3238 65.5181 6.60229 66.6003C7.07337 68.4362 7.5948 70.2635 8.76508 71.8387C8.851 71.9521 8.9073 72.0909 8.96063 72.2212C8.97841 72.2637 8.9458 72.3232 8.89247 72.6207L8.89544 72.6178Z" fill="#DEA401"/>
<path d="M45.895 66.2977C45.9791 65.5088 46.0633 64.669 46.1648 63.8351C46.1706 63.7781 46.2954 63.7391 46.4144 63.6552C46.4927 63.8321 46.6204 63.9851 46.6204 64.1351C46.6233 64.9239 46.603 65.7098 46.5769 66.4986C46.5653 66.9156 46.2809 66.9545 45.9472 66.9185C45.8863 67.4614 45.8283 67.9954 45.7644 68.5323C45.7267 68.8382 45.5816 69.0692 45.2595 69.0302C44.952 68.9942 44.7808 68.7332 44.8388 68.4393C44.9665 67.7914 45.1261 67.1465 45.335 66.5226C45.3756 66.3996 45.689 66.3726 45.895 66.2977Z" fill="#DEA401"/>
<path d="M47.5872 50.9655C48.4579 51.7565 48.6908 53.6369 48.0444 54.5517C47.6425 53.3733 47.3863 52.2615 47.5872 50.9655Z" fill="#DEA401"/>
<path d="M8.17839 41.2379C7.87487 40.4795 8.26716 40.0203 8.57354 39.5924C8.90856 39.1227 9.17772 38.4443 9.86207 38.5661C9.75899 39.6654 9.046 40.8204 8.18126 41.2414L8.17839 41.2379Z" fill="#DEA401"/>
<path d="M8.96552 42.2662C8.90888 42.95 8.63733 43.4195 8.3641 43.8773C8.32079 43.9498 8.20417 43.9411 8.13587 43.8976C8.09588 43.8715 8.06589 43.7006 8.06922 43.5991C8.08921 43.1268 8.57568 42.2314 8.85723 42.1387C8.87889 42.13 8.90888 42.1995 8.96385 42.272L8.96552 42.2662Z" fill="#DEA401"/>
<path d="M7.33737 46.6207C7.0638 46.2431 7.18679 45.9119 7.30555 45.6302C7.42431 45.3486 7.57275 45.0669 7.75301 44.8688C7.88873 44.7202 8.11564 45.0019 8.0605 45.2588C7.93963 45.8159 7.823 46.404 7.33949 46.6176L7.33737 46.6207Z" fill="#DEA401"/>
<path d="M37.6552 6.44225C36.9563 8.5188 36.1046 10.4844 35.1681 12.5517C34.8528 11.954 34.9587 11.5135 35.1281 11.1253C35.6716 9.88673 36.2363 8.6636 36.8058 7.44663C36.9963 7.03687 37.234 6.66716 37.4505 6.27588C37.5187 6.33134 37.5869 6.38679 37.6552 6.43917V6.44225Z" fill="#DEA401"/>
<path d="M19.9308 7.17549C20.9744 8.09661 22.4932 11.7964 22.4106 13.4483C22.0834 13.0307 21.7665 12.7667 21.6425 12.4443C20.9778 10.7187 20.3579 8.97781 19.7242 7.24304C19.793 7.21848 19.8619 7.19699 19.9342 7.17242L19.9308 7.17549Z" fill="#DEA401"/>
<path d="M24.2095 8.96552C24.8621 9.79456 25.277 11.5958 25.0325 12.5517C24.6536 11.9171 24.1669 9.80266 24.2095 8.96552Z" fill="#DEA401"/>
<path d="M31.3792 8.06897C31.387 9.64039 31.051 11.125 30.4918 12.5517C30.4052 10.9629 30.9591 9.53332 31.3792 8.06897Z" fill="#DEA401"/>
</svg>
