<svg width="26" height="26" viewBox="0 0 26 26" fill="none" xmlns="http://www.w3.org/2000/svg">
<path d="M13 0C5.82218 0 0 5.82218 0 13C0 20.1778 5.82218 26 13 26C20.1778 26 26 20.1778 26 13C26 5.82218 20.1778 0 13 0ZM18.1169 6.55877H16.5967C15.1001 6.55877 14.6299 7.49126 14.6299 8.44726V10.7119H17.9759L17.443 14.1989H14.6299V22.6384H10.8529V14.1989H7.78903V10.7119H10.8529V8.05546C10.8529 5.03074 12.6552 3.36167 15.4135 3.36167C16.7378 3.36167 18.1169 3.59674 18.1169 3.59674V6.56661V6.55877Z" fill="white"/>
</svg>
