<svg width="52" height="67" viewBox="0 0 52 67" fill="none" xmlns="http://www.w3.org/2000/svg">
<path d="M37.0892 5.66481C38.4471 5.94861 39.674 6.12325 40.8572 6.46817C42.2762 6.88296 43.5249 7.65576 44.5859 8.69927C45.9044 9.99601 46.6773 11.5372 46.6904 13.419C46.6947 14.4364 46.7209 15.458 46.7034 16.4753C46.6904 17.1215 46.9436 17.5843 47.5155 17.8769C48.9869 18.6278 49.9475 19.9333 50.9255 21.1733C51.4232 21.802 51.7944 22.6621 51.886 23.4568C52.2091 26.19 51.8773 28.8402 50.4758 31.2853C50.288 31.6171 50.0785 32.0231 50.1047 32.3811C50.3535 35.6077 49.6593 38.7208 49.0612 41.8513C48.1661 46.5405 47.3016 51.2385 46.4284 55.932C46.3061 56.5826 46.2101 57.2375 46.1053 57.8881C45.9132 59.0757 45.2583 60.0057 44.4636 60.8658C41.4772 64.0924 37.6961 65.8301 33.4392 66.4893C30.2912 66.9783 27.0952 67.07 23.9166 66.5985C23.4364 66.5286 22.943 66.4632 22.4889 66.306C19.2711 65.2013 15.8393 64.7036 12.8136 63.0794C11.2243 62.2236 9.74854 61.1408 8.28588 60.0711C7.86674 59.7611 7.52618 59.1674 7.40829 58.6478C6.52197 54.727 5.47846 50.8455 5.09424 46.8156C4.78425 43.6108 4.17736 40.4323 3.68835 37.2407C3.47878 35.8871 3.2561 34.5336 2.9985 33.1845C2.92864 32.8134 2.7147 32.4641 2.53133 32.1279C1.93753 31.0408 1.20402 30.0147 0.749945 28.8751C-0.795664 24.9849 0.0775613 21.7758 3.09456 19.1823C4.04637 18.3615 4.40876 17.4621 4.64453 16.2701C5.57888 11.5765 7.76631 7.64266 11.9622 5.04918C14.5425 3.45554 17.2801 2.42514 20.3801 2.7002C20.904 2.74823 21.2926 2.60415 21.6943 2.24613C23.9778 0.198413 26.6978 -0.404112 29.6101 0.255174C31.2736 0.630661 32.8541 1.39909 34.4346 2.07148C35.5873 2.56485 36.3208 3.5123 36.7399 4.69116C36.8709 5.05791 37.0106 5.42467 37.098 5.66044L37.0892 5.66481ZM24.0782 36.1055C27.5143 35.861 30.9723 35.7649 34.3866 35.3283C36.9146 35.0052 39.3902 34.2455 41.892 33.6823C43.6908 33.2806 45.3019 32.4466 46.8606 31.5079C48.0351 30.8006 48.856 29.8357 49.1878 28.4342C49.5589 26.8624 49.7073 25.2906 49.5414 23.6969C49.4934 23.2297 49.3624 22.6927 49.0786 22.3434C48.1923 21.2519 47.4108 20.0512 46.1009 19.3657C44.9745 18.7763 44.4811 17.7808 44.4986 16.519C44.5117 15.5017 44.4986 14.48 44.4986 13.4583C44.4986 12.1572 44.0314 11.0526 43.1101 10.1226C41.6999 8.69926 39.9622 7.9221 38.0105 7.86097C36.1898 7.80421 35.0983 7.06197 34.6311 5.31115C34.439 4.59511 33.9675 4.0668 33.2689 3.7699C32.2123 3.32019 31.1819 2.78316 30.0903 2.43824C27.6104 1.6567 25.2789 1.98416 23.2355 3.67822C22.4016 4.36807 21.4891 4.59511 20.4106 4.56018C15.2804 4.39863 11.4994 6.73451 8.89714 11.0482C7.71829 12.9999 7.05463 15.1655 6.81886 17.4403C6.72281 18.3615 6.37788 19.1518 5.69677 19.7805C5.33875 20.1123 4.9327 20.383 4.56158 20.7017C3.26484 21.8282 2.14274 23.0944 2.00302 24.902C1.75852 28.1242 3.49624 31.7262 7.12886 32.8047C8.1418 33.1059 9.11981 33.5338 10.1153 33.8918C10.8226 34.1451 11.5168 34.4463 12.2416 34.6253C16.1275 35.5815 20.0439 36.2364 24.0825 36.1011L24.0782 36.1055ZM21.8034 63.909C21.0743 55.2509 20.3539 46.7108 19.6378 38.2056C16.9919 37.7078 14.3766 37.2101 11.626 36.6905C12.7568 45.2045 13.8614 53.5263 14.9792 61.9617C17.2626 62.6122 19.5068 63.2541 21.8034 63.909ZM28.5404 64.7211C28.5404 60.0711 28.5316 55.6919 28.5404 51.3083C28.5535 46.9378 28.4443 42.563 29.0337 38.1444H20.8996C21.2009 40.3537 21.5415 42.4887 21.7729 44.6369C21.93 46.0864 21.8602 47.5622 22.0086 49.0117C22.4016 52.8801 22.8557 56.7441 23.2966 60.6082C23.4407 61.8656 23.6197 63.1187 23.79 64.446C25.4273 64.5421 26.9118 64.6294 28.5404 64.7254V64.7211ZM30.3916 37.9611V64.5857C32.0464 64.3281 33.5003 64.1011 34.8625 63.8915C35.6615 54.8973 36.4387 46.1214 37.2246 37.2537C35.2074 37.4459 33.1946 37.638 31.1862 37.8388C30.885 37.8694 30.5881 37.9305 30.396 37.9654L30.3916 37.9611ZM13.3288 61.1103C12.3377 52.688 11.3771 44.4928 10.4122 36.2888C8.57841 35.3501 6.77084 34.4638 4.64453 34.132C4.67946 34.5031 4.68819 34.8043 4.74495 35.0969C5.24706 37.6118 5.84522 40.1092 6.25127 42.6372C7.09393 47.8809 8.16363 53.0679 9.61755 58.1762C9.72234 58.5386 9.84896 59.0014 10.124 59.1848C11.102 59.8485 12.1499 60.4117 13.3331 61.1103H13.3288ZM40.6607 61.0841C41.5645 60.1759 42.3592 59.473 43.0272 58.6696C43.621 57.9579 43.9353 57.124 44.1056 56.1591C44.9832 51.2428 45.9568 46.344 46.913 41.4409C47.4282 38.8037 47.9696 36.1709 48.5416 33.3373C46.734 34.18 45.1491 34.9222 43.5162 35.6819C43.3503 44.0998 41.8832 52.4173 40.6651 61.0841H40.6607ZM38.9361 62.1363C40.1892 53.3036 41.5951 44.7067 42.3679 35.826C40.9751 36.2102 39.7613 36.5464 38.517 36.8914C37.9756 45.6193 37.4385 54.2467 36.8928 63.0532C37.6699 62.7039 38.3423 62.407 38.9361 62.1407V62.1363Z" fill="#DEA401"/>
<path d="M22.8033 10.9915C21.7598 11.0046 21.0917 10.6335 20.8603 10.0703C20.5853 9.39354 20.8647 8.8696 21.3537 8.42425C21.6113 8.18848 21.882 7.94835 22.1833 7.77807C23.0172 7.30216 23.9428 7.49427 24.41 8.20158C24.8291 8.83904 24.7069 9.79958 24.0258 10.341C23.5979 10.6815 23.0434 10.8693 22.8033 10.9915Z" fill="#DEA401"/>
<path d="M18.8127 14.659C19.8431 14.6328 20.7469 15.4143 20.8036 16.388C20.8648 17.3616 20.1182 18.1563 19.1052 18.1912C17.9657 18.2305 17.2714 17.4533 17.2321 16.1042C17.2103 15.3008 17.8871 14.6852 18.8127 14.659Z" fill="#DEA401"/>
<path d="M28.1125 12.0263C28.1387 10.9304 28.8067 10.2188 29.8022 10.2275C30.7496 10.2362 31.553 11.0047 31.5312 11.8823C31.5093 12.8559 30.6056 13.6767 29.5795 13.6593C28.5971 13.6418 28.0907 13.0786 28.1125 12.0263Z" fill="#DEA401"/>
<path d="M27.5885 17.1871C27.6103 18.1302 26.7109 19.0995 25.7766 19.1431C25.0387 19.1781 24.3139 18.5799 24.3838 17.8682C24.5278 16.4361 24.7854 15.7943 26.0123 15.7463C26.8856 15.7113 27.5667 16.3663 27.5841 17.1871H27.5885Z" fill="#DEA401"/>
<path d="M26.9554 25.8276C28.1518 25.8494 28.6801 26.4345 28.6058 27.2902C28.5491 27.967 28.1605 28.4342 27.6235 28.7835C26.9685 29.2114 26.1652 29.1284 25.6718 28.6263C25.1915 28.1373 25.1653 27.3339 25.746 26.7139C26.139 26.2904 26.6935 26.0153 26.9598 25.8276H26.9554Z" fill="#DEA401"/>
<path d="M27.7545 6.55547C27.8505 5.37661 28.6146 4.56015 29.5402 4.64747C30.3218 4.7217 30.9287 5.43338 30.8544 6.18872C30.7584 7.16236 29.8939 7.99629 29.025 7.94827C28.2391 7.9046 27.689 7.30208 27.7501 6.55547H27.7545Z" fill="#DEA401"/>
<path d="M31.8892 21.0467C32.8148 21.0248 33.3911 21.5226 33.3868 22.3478C33.3868 23.269 32.5354 24.1597 31.6228 24.199C30.8107 24.234 30.1253 23.6183 30.1165 22.8455C30.1078 21.9199 30.9417 21.0685 31.8848 21.0467H31.8892Z" fill="#DEA401"/>
<path d="M13.8745 14.1045C13.0318 14.1002 12.3027 13.4147 12.3114 12.6419C12.3202 11.8342 13.1104 10.9609 13.857 10.9347C14.6429 10.9085 15.4725 11.7163 15.4856 12.5284C15.5031 13.3798 14.7565 14.1089 13.8745 14.1045Z" fill="#DEA401"/>
<path d="M36.1418 17.5843C35.4825 17.593 34.1771 16.7722 34.1378 16.3225C34.081 15.6719 35.1332 14.7812 36.0021 14.7463C36.8753 14.7114 37.6045 15.3139 37.6481 16.1042C37.6918 16.9163 37.0281 17.5668 36.1418 17.5799V17.5843Z" fill="#DEA401"/>
<path d="M9.3294 25.6748C10.5694 27.4954 10.2245 29.4253 10.8619 31.115C9.99305 31.5385 9.5739 31.1237 9.32503 30.5954C9.10673 30.1326 8.98884 29.5912 8.94955 29.0716C8.89279 28.2814 8.91898 27.4824 8.95828 26.6877C8.97138 26.4258 9.14165 26.1769 9.3294 25.6748Z" fill="#DEA401"/>
<path d="M17.4722 21.7845C18.2494 21.8151 18.865 22.4045 18.8563 23.1118C18.8475 23.9938 17.9612 24.8059 17.0967 24.736C16.3457 24.6749 15.7301 24.0112 15.7912 23.3345C15.8698 22.4525 16.6295 21.7539 17.4766 21.7845H17.4722Z" fill="#DEA401"/>
<path d="M41.5645 24.1642C40.8616 24.0594 40.3769 23.8192 40.1673 23.1905C39.9927 22.6753 40.3027 22.2125 41.0318 21.9331C41.4379 21.7802 41.892 21.5707 42.2893 21.6318C42.656 21.6885 43.1057 21.9985 43.2673 22.326C43.3939 22.5792 43.2411 23.1468 43.0141 23.3564C42.6124 23.7188 42.0579 23.9065 41.5689 24.1685L41.5645 24.1642Z" fill="#DEA401"/>
<path d="M13.3069 19.0077C12.5079 19.0164 11.8705 18.5056 11.8268 17.8201C11.7788 17.0604 12.4206 16.4666 13.2764 16.4753C14.1627 16.484 14.7914 17.0473 14.7608 17.7983C14.7303 18.5012 14.1365 18.9989 13.3069 19.0077Z" fill="#DEA401"/>
<path d="M7.23363 25.1377C7.23363 25.7883 7.23363 26.4344 7.23363 27.085C7.23363 28.194 7.49123 29.1313 8.00643 29.8968C7.09391 30.2242 6.55251 30.0496 6.32984 29.2026C6.18576 28.6655 6.18139 28.0543 6.27308 27.5042C6.40406 26.6921 6.67913 25.8974 6.8887 25.0984L7.23363 25.1421V25.1377Z" fill="#DEA401"/>
<path d="M5.76222 28.3337C4.91956 28.5826 4.51787 28.1853 4.40436 27.5959C4.16858 26.4083 4.35633 25.2818 5.31251 24.1335C5.35181 25.6835 4.8366 27.0545 5.76659 28.3337H5.76222Z" fill="#DEA401"/>
<path d="M13.4466 31.7393C12.1936 31.2503 11.9141 30.2418 12.521 28.8271C13.3637 29.6087 13.1759 30.6391 13.4466 31.7393Z" fill="#DEA401"/>
<path d="M29.3525 32.5689C28.3963 32.2589 28.5011 31.5952 28.5666 30.997C28.5884 30.7962 28.8635 30.46 29.0076 30.4687C29.2608 30.4818 29.6319 30.6478 29.7324 30.8573C30.0249 31.4642 29.8197 32.0231 29.3569 32.5689H29.3525Z" fill="#DEA401"/>
<path d="M26.6062 30.7177C26.855 31.3813 27.1039 32.045 27.3702 32.7567C26.1608 32.8353 25.9556 32.3768 26.3224 30.8006C26.4184 30.7701 26.5145 30.7439 26.6105 30.7133L26.6062 30.7177Z" fill="#DEA401"/>
<path d="M14.9355 29.1284C15.6341 30.0803 15.6515 30.626 15.049 31.5298C14.4945 30.7439 14.6473 29.9929 14.9355 29.1284Z" fill="#DEA401"/>
<path d="M15.9877 45.6761C16.5597 45.89 16.599 46.2349 16.4462 46.6584C16.1362 47.5229 16.158 48.5795 15.097 49.0249C14.4596 47.9683 14.7259 46.9728 15.9877 45.6761Z" fill="#DEA401"/>
<path d="M15.2979 43.707C15.1888 45.0081 14.9487 46.0603 14.0361 47.2479C13.9226 46.6847 13.748 46.3616 13.8222 46.104C14.0667 45.2526 14.2064 44.3051 15.2979 43.7026V43.707Z" fill="#DEA401"/>
<path d="M25.2876 45.8681C24.9339 46.8985 24.7418 47.8154 23.8074 48.3306C23.3184 47.2085 23.9472 46.0646 25.2876 45.8681Z" fill="#DEA401"/>
<path d="M8.32516 45.3137C8.11995 45.3486 7.91911 45.3792 7.61348 45.4316C7.58729 45.0168 7.5087 44.6719 7.55672 44.34C7.64841 43.6851 8.04573 43.0258 7.31222 42.4626C7.1987 42.3753 7.2118 42.026 7.26856 41.8251C7.60912 40.607 7.98024 39.3976 8.42122 37.9131C9.3381 39.2229 8.63952 40.2228 8.46051 41.2837C9.1198 41.144 9.48655 41.3623 9.28134 42.074C8.96262 43.1743 8.61333 44.2658 8.27713 45.3661L8.32516 45.3224V45.3137Z" fill="#DEA401"/>
<path d="M8.28153 45.3572C8.59589 45.0909 8.91025 44.8245 9.25954 44.5276C9.39052 45.7065 8.89279 47.1037 8.03703 47.9813C7.64407 47.5054 7.77069 47.0163 7.92351 46.5273C8.05012 46.1213 8.19421 45.7152 8.32519 45.3135L8.27716 45.3616L8.28153 45.3572Z" fill="#DEA401"/>
<path d="M8.44745 50.1469C8.24661 49.0772 8.83167 48.3437 9.31194 47.5054C9.90137 48.5882 9.64814 49.3479 8.44745 50.1469Z" fill="#DEA401"/>
</svg>
