<svg width="58" height="75" viewBox="0 0 58 75" fill="none" xmlns="http://www.w3.org/2000/svg">
<path d="M57.0067 45.859C56.9451 45.9733 56.8309 46.0831 56.8265 46.1974C56.7298 49.1152 55.3544 51.453 53.5791 53.6502C50.9205 56.9327 47.8621 59.7759 44.3993 62.1796C43.4589 62.8343 42.3691 63.2738 41.3452 63.8099C41.0772 63.9505 40.7652 64.0559 40.5543 64.2625C39.4996 65.26 38.2736 65.9895 36.9026 66.4289C36.3489 66.6091 36.0984 66.8991 35.9885 67.4264C35.7908 68.3844 35.5799 69.3423 35.3382 70.2915C35.1756 70.9375 35.0042 71.5923 34.7318 72.1943C34.2396 73.2797 33.3695 74.0003 32.1918 74.1541C30.522 74.3739 28.8521 74.6287 27.1427 74.3475C25.8728 74.141 24.5676 74.1585 23.2845 74.0135C21.9179 73.8597 20.5556 73.662 19.1978 73.4291C17.7081 73.1742 16.2052 72.9413 14.7463 72.559C10.7343 71.5087 6.74861 70.3618 3.07934 68.3536C2.80689 68.2042 2.53006 68.0548 2.2664 67.8878C0.552604 66.8112 0.328472 66.196 0.570161 64.2317C0.882159 61.6962 1.4754 59.2442 2.38502 56.858C2.53004 56.4801 2.52566 55.9836 2.42459 55.5837C1.27327 51.0048 0.332869 46.3907 0.187856 41.6492C0.148307 40.3133 0.0692288 38.9819 0.0164967 37.646C-0.128516 33.7086 0.693209 29.9339 2.05985 26.2734C4.41521 19.9588 7.49565 14.0572 12.1185 9.06519C13.6389 7.42171 15.3615 6.01113 17.2555 4.81148C20.7753 2.57915 24.6292 1.25646 28.7247 0.61489C31.0581 0.25016 33.4003 -0.228821 35.76 0.122726C38.0011 0.456696 40.2203 0.944461 42.4262 1.47618C43.8061 1.81015 44.8783 2.69781 45.7747 3.80518C49.0002 7.79524 50.0944 12.3038 49.1408 17.3397C48.4992 20.7234 47.3699 23.9532 46.2493 27.1962C45.3485 29.7977 44.5927 32.4607 43.9599 35.1412C43.727 36.1299 43.9027 37.2725 44.1137 38.3007C44.351 39.4872 44.7465 39.6278 45.9505 39.3773C46.9524 39.1664 47.9455 38.8808 48.9562 38.7797C50.1471 38.6611 51.3687 38.604 52.5596 38.7094C54.7699 38.8984 56.2948 40.3924 56.7474 42.5896C56.8089 42.8796 56.9232 43.1609 57.0154 43.4465V45.8546L57.0067 45.859ZM2.35426 39.663C2.23122 43.7014 2.68384 47.4541 3.1848 51.2113C3.52756 53.782 4.4328 56.0539 6.3004 57.816C8.70849 60.0879 11.6922 61.4281 14.7771 62.496C16.3722 63.0497 18.0113 63.4935 19.6592 63.8626C22.2167 64.4383 24.7786 65.1062 27.38 65.3787C33.0531 65.9719 38.1681 64.2054 42.6328 60.8129C46.2186 58.084 49.3297 54.8103 52.1201 51.2465C53.5395 49.4316 54.2338 47.3399 54.5327 45.1032C54.6733 44.0397 54.5986 42.9763 54.1152 41.9656C53.7812 41.2669 53.3242 40.8363 52.5288 40.7044C50.7008 40.4012 48.8991 40.5023 47.093 40.8714C46.4471 41.0033 45.766 41.0867 45.1112 41.0384C43.828 40.9461 42.8173 40.3705 42.2988 39.1137C41.7495 37.7822 41.231 36.4068 41.5518 34.9698C42.123 32.4123 42.7514 29.8592 43.4985 27.3456C44.285 24.7046 45.3485 22.1384 46.0823 19.4842C46.5877 17.6517 46.9348 15.7314 47.0096 13.8375C47.1502 10.3132 45.9373 7.18442 43.5556 4.5654C43.1249 4.09081 42.5054 3.69972 41.8945 3.50197C39.7369 2.79449 37.5266 2.26716 35.2415 2.16169C32.0952 2.01228 29.0147 2.53961 26.0002 3.33059C20.9599 4.64889 16.693 7.24155 13.2302 11.2008C10.1982 14.6636 7.94827 18.5833 6.01915 22.714C3.47922 28.1586 1.83133 33.7965 2.35426 39.6542V39.663ZM3.71212 57.9566C3.38255 59.7627 3.07495 61.3754 2.80689 62.9969C2.71461 63.5638 2.76735 64.157 2.67507 64.7239C2.53884 65.5808 2.9563 66.0949 3.65499 66.4245C5.22377 67.1672 6.77937 67.9362 8.38331 68.5865C12.4481 70.2344 16.7501 71.0342 21.0302 71.8207C23.2889 72.2338 25.6267 72.2646 27.9293 72.4052C29.0367 72.4711 30.1573 72.3744 31.269 72.3656C32.2094 72.3612 32.7939 71.8515 33.0224 71.0034C33.3388 69.8169 33.5585 68.6041 33.8441 67.2682C33.3959 67.3078 33.0971 67.3078 32.8027 67.3605C30.4561 67.7604 28.1007 67.8131 25.7717 67.3166C22.3793 66.5915 18.9824 65.9411 15.6471 64.9304C11.1781 63.577 7.11334 61.6391 3.70772 57.961L3.71212 57.9566Z" fill="#DEA401"/>
<path d="M25.2707 41.1966C26.2375 41.5833 27.3273 41.4822 28.3995 42.4007C25.5432 42.3699 23.0296 41.9568 20.2173 41.8162C21.6762 41.1219 22.9989 41.3987 24.0931 41.2142C24.8225 38.371 25.53 35.6246 26.277 32.7155C24.7127 32.3288 23.0165 32.4299 21.162 32.4475C20.2656 35.2555 19.3823 38.0327 18.4288 41.0296C18.1871 40.6693 17.9146 40.454 17.919 40.2386C17.9278 39.3993 17.9102 38.5336 18.1124 37.7295C18.5474 36.0113 19.1099 34.3239 19.668 32.4651C17.8531 32.364 16.113 32.4431 14.2717 32.6804C13.7488 34.4777 13.2302 36.2486 12.7117 38.0195C12.6238 38.0063 12.5359 37.9887 12.4437 37.9756C12.2943 36.2442 12.7557 34.5524 13.0237 32.7858C12.3382 32.7067 11.7098 32.6364 11.0814 32.5661L11.0682 32.2761C11.4725 32.1706 11.8724 31.9993 12.2811 31.9773C13.0633 31.9333 13.4588 31.595 13.6609 30.8172C13.9553 29.701 14.3948 28.62 14.7595 27.5258C14.8562 27.2402 14.9177 26.9458 15.0231 26.5635H11.2616C11.244 26.4756 11.2308 26.3877 11.2133 26.2998C12.057 26.1196 12.8919 25.8252 13.74 25.7813C15.1726 25.7066 15.9152 25.043 16.3942 23.6896C17.0314 21.8967 17.9146 20.1917 18.7671 18.2713C16.3063 18.513 13.9905 18.7459 11.6791 18.9744C11.6483 18.8778 11.6219 18.7811 11.5912 18.6844C11.9163 18.5658 12.2327 18.39 12.5711 18.3329C14.4123 18.0209 16.2536 17.6869 18.108 17.4628C18.9912 17.3573 19.5054 17.0014 19.9668 16.2236C21.2587 14.0396 22.6605 11.9215 24.0491 9.79466C24.326 9.37281 24.7346 9.03444 25.1872 8.73563C25.0554 9.84739 24.2512 10.5813 23.7767 11.4865C23.2977 12.3917 22.7352 13.253 22.2211 14.1407C21.6894 15.0591 21.1664 15.9907 20.582 17.0234C21.641 17.3046 22.599 17.12 23.5482 17.12C24.4842 17.12 25.4201 17.12 26.4133 17.12C26.9626 16.3862 27.5426 15.6084 28.1227 14.835C28.2018 14.8745 28.2809 14.9097 28.36 14.9492C28.0963 15.6699 27.8326 16.3862 27.5294 17.2167C29.4805 17.5683 31.3481 17.9066 33.2904 18.2582C34.3011 17.0058 34.9119 15.3799 36.4455 14.4527C35.782 15.7798 35.1185 17.1069 34.3934 18.5526C35.4744 18.9393 36.4543 19.2952 37.4387 19.6468C37.4255 19.7171 37.4123 19.7874 37.3947 19.8621C36.8806 19.7874 36.3665 19.7171 35.8523 19.6336C35.2854 19.5413 34.7186 19.4446 34.0155 19.3216C33.0004 21.3474 31.9897 23.3644 30.9131 25.5132C33.0092 26.1987 35.1273 26.5503 37.1487 27.9257C34.7933 27.4423 32.7148 27.0161 30.5308 26.5635C29.6212 28.2553 28.9708 29.9867 28.2589 31.8103C29.9287 32.3816 31.581 32.7815 32.8773 34.0338C32.0732 33.8185 31.269 33.5768 30.4605 33.3879C29.6431 33.1989 28.817 33.0583 27.9073 32.8825C26.6506 35.5938 26.0354 38.4062 25.2751 41.2054L25.2707 41.1966ZM25.8244 18.0516C24.0228 18.0516 22.4232 18.078 20.8237 18.0384C20.1865 18.0209 19.8525 18.2713 19.6064 18.8338C18.8286 20.6267 18.0069 22.4064 17.2159 24.1949C17.0797 24.5025 17.0226 24.8409 16.8907 25.2803C18.9033 25.1617 20.7973 25.0518 22.6429 24.9419C23.702 22.6481 24.7215 20.4421 25.8244 18.0472V18.0516ZM27.0812 18.1791C26.0617 20.4861 24.9807 22.5954 24.2776 24.9419C26.1628 25.0694 27.881 25.1793 29.5948 25.2935C30.6802 23.215 31.7216 21.2156 32.8422 19.0755C30.8779 18.7679 29.0499 18.4823 27.0812 18.1791ZM14.5617 31.4983C16.6578 31.3533 18.4595 31.2259 20.2963 31.1028C20.9379 29.4549 21.5575 27.851 22.2518 26.0713C20.1777 26.1724 18.2925 26.269 16.337 26.3657C15.7526 28.0575 15.1945 29.6791 14.5661 31.5027L14.5617 31.4983ZM26.9011 31.551C27.6261 29.8109 28.316 28.1542 29.0543 26.3789C27.1735 26.2603 25.4993 26.1504 23.9041 26.0493C22.9901 27.6796 22.0673 30.2108 22.0365 31.1248C23.6185 31.261 25.2048 31.4016 26.9011 31.551Z" fill="#DEA401"/>
<path d="M33.8661 60.7514C36.7532 59.1343 39.7677 57.693 42.5097 55.8429C45.2079 54.0281 47.6248 51.8001 50.2174 49.7128C49.4484 53.325 38.7702 60.4877 33.8705 60.7514H33.8661Z" fill="#DEA401"/>
<path d="M23.535 45.6877C25.6838 45.3888 29.4629 45.9909 30.4561 46.7467C28.6632 47.2916 24.8357 46.7555 23.535 45.6877Z" fill="#DEA401"/>
<path d="M8.5195 50.5434C8.60299 50.6356 8.77876 50.7411 8.76558 50.8246C8.62057 51.9056 8.46676 52.9866 8.26462 54.0588C8.23825 54.2082 7.95701 54.4148 7.79442 54.4104C7.63183 54.4104 7.39893 54.2126 7.32423 54.0413C6.9551 53.1975 7.6626 51.1542 8.5151 50.5434H8.5195Z" fill="#DEA401"/>
<path d="M9.37205 56.3307C8.5547 55.3112 8.85352 54.2302 10.0356 53.6853C10.3915 54.7268 9.97407 55.509 9.37205 56.3307Z" fill="#DEA401"/>
<path d="M30.1705 51.1366C28.9049 51.6859 28.0084 51.2684 27.0593 50.6796C28.0568 50.2358 28.6281 50.3149 30.1705 51.1366Z" fill="#DEA401"/>
<path d="M11.6087 58.2027C10.7211 57.9786 10.6508 57.482 10.7958 56.9283C10.8397 56.7701 11.099 56.5636 11.2528 56.568C11.4154 56.5724 11.6966 56.7965 11.7054 56.9371C11.7362 57.3326 11.6527 57.7369 11.6044 58.1983L11.6087 58.2027Z" fill="#DEA401"/>
</svg>
