<svg width="53" height="89" viewBox="0 0 53 89" fill="none" xmlns="http://www.w3.org/2000/svg">
<path d="M27.499 60.8007C27.4594 62.7658 27.4202 64.5597 27.3774 66.6448C27.7065 66.2302 27.849 66.051 27.9895 65.8762C29.159 64.4283 30.648 63.9928 32.448 64.4053C34.2726 64.8242 35.5322 65.8468 36.0976 67.6478C36.663 69.4488 35.9024 71.1124 34.1792 71.8926C32.383 72.7091 30.5085 71.7573 30.1129 69.8234C29.9654 69.1049 30.2569 68.4951 30.8153 68.336C31.3848 68.1767 31.9064 68.5358 32.1317 69.2647C32.2076 69.5061 32.2213 69.7616 32.2794 70.0054C32.3236 70.1983 32.3923 70.3865 32.4429 70.5549C33.5845 70.6964 34.4769 70.3849 34.7715 69.644C35.1442 68.72 34.8994 67.838 34.2873 67.0976C32.8962 65.403 29.9557 65.5957 28.8439 67.4697C28.466 68.1092 28.2537 68.8515 27.9653 69.5457C26.5213 73.0322 27.0165 76.8496 26.1024 80.4284C25.8034 81.5983 25.6804 82.8153 25.3524 83.9766C24.8466 85.7753 23.7562 86.4934 21.8642 86.4285C21.613 86.4223 21.3635 86.3671 21.1101 86.3653C19.7363 86.3373 19.3047 85.8617 19.5355 84.548C19.592 84.2052 19.7062 83.8573 19.8585 83.5446C21.639 79.9346 22.472 76.0345 23.354 72.1471C23.6324 70.9174 23.9598 69.7006 24.2627 68.4773C24.3715 68.0383 24.5113 67.5924 24.5401 67.1476C24.6389 65.5375 24.0658 64.9212 22.4651 64.8711C20.3909 64.8059 18.5721 65.3738 17.2474 67.0721C16.5982 67.9056 16.6294 68.1253 17.3702 69.0555C17.5091 68.9518 17.6906 68.8744 17.7914 68.7356C18.1991 68.1935 18.656 67.8909 19.3398 68.2461C19.9699 68.5752 20.3153 69.3072 20.1784 70.0309C19.9213 71.3871 18.4936 72.162 17.1393 71.6515C15.5373 71.0481 14.06 68.7476 15.4966 66.6947C17.5902 63.7015 20.5701 63.2239 23.7848 63.7506C24.2923 63.832 24.754 64.2006 25.4375 64.5336C25.487 63.0929 25.5372 61.7189 25.5903 60.1915C25.0781 60.3124 24.7032 60.3785 24.3443 60.4912C22.5744 61.0496 20.8044 61.1768 18.9818 60.7312C16.7938 60.1961 15.6039 58.8261 15.3257 56.6398C15.091 54.7954 14.8428 52.9444 14.7525 51.0874C14.6624 49.2637 14.0213 47.6635 13.2115 46.0806C12.8394 45.3466 11.9737 44.5933 13.0045 43.6914C13.0794 43.6284 12.9473 43.3208 12.9075 43.1301C12.8185 42.6888 12.6161 42.2419 12.6538 41.8126C12.8956 39.1943 13.2709 36.5968 14.3905 34.1849C14.5926 33.7472 15.0449 33.4314 15.5481 32.875C14.9112 29.9613 14.1997 26.7238 16.3099 23.8216C14.6293 19.9298 14.0588 15.9153 13.8186 11.8351C13.8026 11.573 13.9309 11.2983 14.0265 10.875C14.8628 11.3709 15.548 11.8594 16.3026 12.1938C17.0662 12.5326 17.897 12.7107 18.6618 12.945C18.3218 9.95484 17.9831 7.07582 17.6843 4.19417C17.6176 3.54812 17.6083 2.87481 17.7129 2.24033C17.9365 0.873416 18.6757 0.570158 19.8678 1.3001C21.4358 2.26838 22.685 3.57335 23.7385 5.07592C24.0453 5.51279 24.3697 5.93613 24.9175 6.68387C25.4436 4.69598 25.8622 3.05368 26.3298 1.42421C26.4307 1.0809 26.6681 0.616176 26.945 0.524406C27.4876 0.340982 27.7418 0.851733 27.8774 1.28815C28.5001 3.25524 29.1383 5.21327 29.679 7.20121C29.9377 8.14529 30.315 8.95925 30.9078 9.75096C32.312 11.6455 33.7894 13.5259 34.2545 15.9414C34.2898 16.1299 34.3752 16.4313 34.4933 16.4612C35.6966 16.7709 35.5498 17.8326 35.6918 18.6645C36.0184 20.5813 36.6503 22.3706 37.6632 24.0247C38.3414 25.1289 38.6363 26.3504 38.7205 27.6185C38.9019 30.3214 39.0167 33.0249 39.218 35.7209C39.2723 36.4604 39.4757 37.2117 39.7274 37.9092C40.4298 39.8488 40.6147 41.8182 40.3291 43.8569C40.2256 44.5914 40.2601 45.3489 40.3123 46.0929C40.4194 47.632 40.0945 49.0933 39.6741 50.5578C39.2859 51.9108 38.8444 53.2711 38.6654 54.6598C38.0157 59.7271 33.0628 61.9631 29.3845 61.0945C28.8542 60.9689 28.3026 60.9213 27.4901 60.7963L27.499 60.8007ZM28.1576 50.1549C29.2186 50.0306 30.1567 49.8408 31.0967 49.8289C32.9233 49.801 34.4136 49.0677 35.7192 47.8741C36.3533 47.2985 36.9582 46.6922 37.59 46.11C38.748 45.049 39.2896 43.6988 39.1783 42.1798C39.0976 41.0405 38.8743 39.876 38.4766 38.8089C37.9415 37.3654 37.56 35.9359 37.704 34.392C37.7419 33.9738 37.6752 33.5433 37.6387 32.8125C37.0321 33.4678 36.6209 33.8921 36.2367 34.3406C35.1892 35.5605 33.9764 36.4842 32.3322 36.7391C31.8418 36.8153 31.3458 36.9827 30.8923 37.1874C29.6225 37.7629 28.7009 38.4747 28.685 40.1528C28.6675 42.9689 28.3634 45.7835 28.1903 48.6011C28.1621 49.0903 28.1694 49.5859 28.1576 50.1549ZM15.4512 35.7407C15.3653 35.815 15.2458 35.8673 15.2265 35.9408C14.5106 39.1242 13.9256 42.2884 16.2686 45.1266C16.4914 45.3954 16.6503 45.716 16.8268 46.0231C17.2184 46.7058 17.8012 46.9731 18.5877 46.9472C21.2759 46.8526 23.8896 47.07 26.2708 49.0922C26.453 46.9478 26.5689 45.0531 26.7871 43.164C27.0278 41.0812 25.6373 38.7954 22.9125 38.7948C20.0055 38.7938 17.569 37.6567 15.4556 35.7429L15.4512 35.7407ZM15.2378 13.4494C15.2858 14.009 15.2306 14.474 15.3659 14.8771C16.3611 17.8271 16.9241 20.9038 18.2096 23.7797C19.1061 25.7862 20.5173 26.8494 22.5032 27.4022C23.7893 27.7578 25.071 28.1224 26.4373 28.506C26.3473 25.6155 26.2216 22.7076 25.2581 20.0218C24.3771 17.5751 22.7956 15.5224 19.9751 14.856C18.4623 14.5005 16.99 13.9713 15.2399 13.445L15.2378 13.4494ZM16.0358 47.7493C16.3128 49.1777 16.5822 50.2928 16.7362 51.4291C16.9533 53.0715 17.1038 54.7256 17.252 56.3731C17.3423 57.3679 17.7723 58.1079 18.7052 58.485C20.9638 59.3972 23.2615 59.5823 25.6297 58.851C25.7304 56.5564 25.8586 54.3526 25.9091 52.1496C25.9355 51.0514 24.7385 49.4237 23.6738 49.1924C22.3551 48.9039 21.0012 48.6534 19.6564 48.634C18.4272 48.6157 17.2472 48.6213 16.0381 47.7559L16.0358 47.7493ZM34.391 20.7449C34.2784 20.8172 34.161 20.854 34.1262 20.9255C33.1106 23.0784 31.8569 24.9828 29.8878 26.4833C28.7699 27.3373 28.006 28.6786 28.3772 30.4016C28.6901 31.8586 28.6549 33.3947 28.7861 34.8957C28.8088 35.1555 28.8981 35.4146 28.9214 35.5143C29.991 35.361 30.9241 35.1135 31.8577 35.1261C32.9557 35.1413 33.8293 34.7322 34.5778 34.0355C35.2404 33.4241 35.8243 32.7247 36.4196 32.0473C38.1571 30.0802 37.8647 27.8096 37.0512 25.6667C36.4023 23.9577 35.3152 22.4222 34.3866 20.7427L34.391 20.7449ZM27.1597 4.50927C25.6889 7.56263 25.2571 10.7074 25.6531 13.9681C25.755 14.7916 25.6573 15.6505 25.839 16.4576C26.333 18.666 26.9313 20.8534 27.4764 23.048C27.6201 23.6154 27.7261 24.1922 27.8545 24.7909C30.6735 23.3838 30.896 23.1881 32.6096 20.6234C33.7848 18.8688 33.7868 16.6974 32.5491 15.0056C31.5977 13.702 30.6198 12.4187 29.5737 11.1961C28.6266 10.088 28.0071 8.86318 27.7413 7.44578C27.5555 6.46538 27.3499 5.49185 27.1575 4.51374L27.1597 4.50927ZM16.806 25.3678C16.2721 26.6112 16.1611 27.6903 16.4325 28.7898C16.8641 30.5477 17.5398 32.2698 17.7384 34.0524C17.9463 35.8837 19.0284 36.5104 20.5168 36.8705C21.1451 37.0218 21.7991 37.0861 22.4508 37.1327C23.723 37.2218 24.9498 37.438 26.0504 38.1288C26.2697 38.2688 26.524 38.3595 27.0377 38.6098C26.946 36.1993 26.9348 34.0437 26.7482 31.9076C26.6572 30.8462 25.9048 30.0873 24.8743 29.729C24.3077 29.5304 23.7086 29.41 23.1164 29.3094C21.4332 29.0202 19.948 28.3133 18.6674 27.1976C18.0663 26.6726 17.5246 26.0826 16.8016 25.3767L16.806 25.3678ZM39.1614 46.7649C39.0676 46.7192 38.9649 46.6803 38.8689 46.639C38.1141 47.3603 37.366 48.0903 36.6023 48.8072C35.0593 50.25 33.3216 51.3437 31.1534 51.4373C29.996 51.4871 28.9996 51.842 28.0316 52.581C27.9133 53.8223 27.7623 55.1196 27.6758 56.4206C27.6162 57.3147 27.6433 58.2123 27.6312 59.1903C28.455 59.3373 29.1834 59.4875 29.9223 59.5932C30.3674 59.6553 30.8232 59.6728 31.2743 59.6659C34.1051 59.6076 36.4719 57.6651 37.1346 54.9201C37.5972 53.0174 38.1332 51.1338 38.6158 49.2353C38.8252 48.4197 38.981 47.5891 39.1592 46.7694L39.1614 46.7649ZM24.4124 15.619C23.9752 13.3277 23.8769 11.1351 24.1607 8.92974C24.1895 8.70053 24.1663 8.39629 24.0379 8.22872C22.8035 6.64357 21.5582 5.06965 20.2732 3.5317C19.9874 3.18796 19.5341 2.98374 19.0953 2.67048C19.034 2.97782 18.9928 3.07381 18.9982 3.16488C19.1688 6.54792 19.985 9.80869 20.8676 13.0577C20.9347 13.3059 21.1839 13.5544 21.4144 13.7054C22.3611 14.3379 23.3318 14.9323 24.4079 15.6168L24.4124 15.619ZM21.7106 84.69C21.7418 84.7052 21.8359 84.7731 21.9225 84.7655C23.2523 84.6229 23.7669 84.0997 24.0975 82.3316C24.7986 78.5773 25.3395 74.8001 25.4465 70.972C25.4546 70.683 25.3827 70.3881 25.3192 69.8376C24.0679 74.9822 22.8937 79.8327 21.7129 84.6966L21.7106 84.69Z" fill="#DEA401"/>
<path d="M30.7457 47.0544C29.9017 45.6097 30.0529 41.7588 31.0183 40.1286C31.8177 41.9828 31.6666 45.8448 30.7457 47.0544Z" fill="#DEA401"/>
<path d="M16.753 42.3279C17.4913 43.0137 18.1086 43.8229 18.9268 44.2878C19.763 44.7614 20.791 44.8863 21.9124 45.2169C19.0946 46.3152 16.693 44.9022 16.753 42.3279Z" fill="#DEA401"/>
<path d="M19.5311 23.2682C20.6359 24.1435 21.7406 25.0188 22.8857 25.9248C21.3685 26.2139 19.8889 25.1891 19.5311 23.2682Z" fill="#DEA401"/>
<path d="M17.9971 54.0719C18.2512 54.7871 18.4105 55.3566 18.656 55.8852C18.906 56.416 19.2444 56.9015 19.5747 57.4603C18.1305 56.8619 17.6877 55.9553 17.9971 54.0719Z" fill="#DEA401"/>
<path d="M30.8989 27.1084C31.6641 29.1007 31.776 30.8909 31.3365 32.8712C30.301 31.8196 30.0688 28.9261 30.8989 27.1084Z" fill="#DEA401"/>
<path d="M29.0232 21.3362C28.1562 19.5983 27.6529 17.7834 27.587 15.7171C28.9851 16.5916 29.6501 19.2095 29.0232 21.3362Z" fill="#DEA401"/>
<path d="M23.6108 35.4094C21.5357 36.1177 19.9296 35.3298 19.6169 33.464L23.6108 35.4094Z" fill="#DEA401"/>
<path d="M30.0613 53.0667C30.5871 54.4725 30.577 55.855 30.0901 57.3424C29.3746 56.2808 29.3375 54.4165 30.0613 53.0667Z" fill="#DEA401"/>
<path d="M22.0947 12.0137C21.1733 10.6031 20.6462 9.06399 20.5864 7.37109C21.7912 8.67652 22.2054 10.2546 22.0947 12.0137Z" fill="#DEA401"/>
</svg>
