<svg width="27" height="27" viewBox="0 0 27 27" fill="none" xmlns="http://www.w3.org/2000/svg">
<path d="M13.5107 10.5887C12.1299 10.5887 11.0095 11.7092 11.0095 13.09C11.0095 14.4708 12.1299 15.5912 13.5107 15.5912C14.8915 15.5912 16.0119 14.4708 16.0119 13.09C16.0119 11.7092 14.8915 10.5887 13.5107 10.5887Z" fill="white"/>
<path d="M16.6194 6.65149H10.2835C8.47663 6.65149 7.00903 8.11908 7.00903 9.92596V16.2619C7.00903 18.0687 8.47663 19.5363 10.2835 19.5363H16.6194C18.4263 19.5363 19.8939 18.0687 19.8939 16.2619V9.92596C19.8939 8.11908 18.4263 6.65149 16.6194 6.65149ZM13.5185 16.9956C11.3645 16.9956 9.61283 15.244 9.61283 13.09C9.61283 10.9359 11.3645 9.18427 13.5185 9.18427C15.6726 9.18427 17.4242 10.9359 17.4242 13.09C17.4242 15.244 15.6726 16.9956 13.5185 16.9956ZM17.653 9.84705C17.1402 9.84705 16.722 9.42887 16.722 8.916C16.722 8.40313 17.1402 7.98495 17.653 7.98495C18.1659 7.98495 18.5841 8.40313 18.5841 8.916C18.5841 9.42887 18.1659 9.84705 17.653 9.84705Z" fill="white"/>
<path d="M13.4475 0C6.22003 0 0.357544 5.86248 0.357544 13.09C0.357544 20.3175 6.22003 26.18 13.4475 26.18C20.675 26.18 26.5375 20.3175 26.5375 13.09C26.5375 5.86248 20.675 0 13.4475 0ZM21.3773 16.254C21.3773 18.8814 19.239 21.0197 16.6115 21.0197H10.2756C7.64817 21.0197 5.5099 18.8814 5.5099 16.254V9.9181C5.5099 7.29063 7.64817 5.15236 10.2756 5.15236H16.6115C19.239 5.15236 21.3773 7.29063 21.3773 9.9181V16.254Z" fill="white"/>
</svg>
