<svg width="82" height="61" viewBox="0 0 82 61" fill="none" xmlns="http://www.w3.org/2000/svg">
<path d="M79.84 27.441C77.1712 19.9208 72.0647 13.0488 65.4616 8.08706C55.6726 0.728905 42.2458 -1.85025 30.4259 1.35299C18.606 4.55624 8.3204 13.5591 3.58277 24.8515C0.565715 32.0476 -2.09274 42.3608 2.38629 50.6533C4.40685 54.391 8.01352 57.4012 12.5374 59.1321C18.0198 61.2285 22.5471 60.6803 27.7881 60.0459C28.4364 59.9665 29.095 59.8872 29.7673 59.8114C33.9395 59.339 38.1806 59.2183 42.37 59.4562C44.1526 59.5562 46.1008 59.7424 48.1662 59.939C51.5866 60.2665 55.4622 60.6355 59.231 60.6355C65.2651 60.6355 69.8027 59.6562 73.0956 57.6391C76.4954 55.5599 79.109 52.2188 80.2676 48.4707C80.4607 47.8432 80.6365 47.1777 80.7917 46.4881L80.8503 46.2088C80.8503 46.2053 80.8503 46.2019 80.8503 46.1984L80.9089 45.9295C82.1226 39.9471 81.7089 32.7234 79.8331 27.441H79.84ZM12.8822 58.2391C8.56866 56.5909 5.14129 53.7359 3.23107 50.1982C-1.06866 42.2401 1.52772 32.2235 4.46547 25.2205C9.09276 14.1936 19.137 5.40103 30.6776 2.27364C42.2183 -0.853749 55.3278 1.66678 64.8893 8.84909C71.344 13.7005 76.3334 20.4139 78.9401 27.7582C80.7882 32.9682 81.1744 40.1299 79.9228 46.0054C79.7607 46.7639 79.5711 47.4984 79.3607 48.1845C78.2711 51.7119 75.8092 54.86 72.6026 56.8185C66.2581 60.6975 56.2794 59.7459 48.2627 58.9804C46.1904 58.7839 44.2319 58.5942 42.432 58.4942C41.0287 58.4149 39.6012 58.377 38.1909 58.377C35.3463 58.377 32.4775 58.5391 29.6673 58.8563C29.0019 58.9321 28.3502 59.0114 27.6778 59.0907C22.5643 59.7114 18.1439 60.2458 12.8856 58.2356L12.8822 58.2391Z" fill="url(#paint0_linear_31_4564)"/>
<path d="M32.3527 42.4581C32.3114 42.4995 32.2872 42.5512 32.2872 42.6133V43.3512H31.1183V42.6133C31.1183 42.5512 31.0976 42.4995 31.0563 42.4581C30.977 42.3788 30.8321 42.3754 30.7459 42.4581C30.7046 42.4995 30.6804 42.5512 30.6804 42.6133V44.5235C30.6804 44.5821 30.7011 44.6373 30.7425 44.6787C30.8253 44.7649 30.977 44.758 31.0528 44.6787C31.0942 44.6373 31.1149 44.5856 31.1149 44.527V43.758H32.2838V44.527C32.2838 44.5856 32.3045 44.6407 32.3458 44.6821C32.3872 44.7235 32.4389 44.7442 32.501 44.7442C32.5631 44.7442 32.6148 44.7235 32.6527 44.6821C32.6941 44.6407 32.7148 44.589 32.7148 44.527V42.6167C32.7148 42.5546 32.6941 42.4995 32.6527 42.4616C32.5734 42.3823 32.4286 42.3788 32.3458 42.4616L32.3527 42.4581Z" fill="url(#paint1_linear_31_4564)"/>
<path d="M36.9869 42.5237C36.8076 42.4237 36.6007 42.3719 36.3731 42.3719C36.1455 42.3719 35.9352 42.4237 35.7559 42.5237C35.5732 42.6271 35.4318 42.7685 35.3318 42.9512C35.2318 43.1305 35.1835 43.3408 35.1835 43.5684C35.1835 43.796 35.2353 44.0063 35.3318 44.1856C35.4318 44.3684 35.5732 44.5132 35.7559 44.6166C35.9352 44.7166 36.1421 44.7684 36.3731 44.7684C36.6041 44.7684 36.811 44.7166 36.9903 44.6166C37.1696 44.5132 37.3144 44.3718 37.4144 44.1891C37.5144 44.0063 37.5662 43.7994 37.5662 43.5684C37.5662 43.3374 37.5144 43.1305 37.4144 42.9512C37.3144 42.7685 37.1696 42.6271 36.9903 42.5237H36.9869ZM35.9766 44.2615C35.8594 44.1925 35.7697 44.096 35.7042 43.9753C35.6387 43.8546 35.6042 43.7201 35.6042 43.5684C35.6042 43.4167 35.6387 43.2822 35.7042 43.1615C35.7697 43.0409 35.8594 42.9478 35.9766 42.8788C36.2076 42.7409 36.5421 42.7443 36.7697 42.8788C36.8834 42.9478 36.9765 43.0409 37.042 43.1615C37.1076 43.2822 37.142 43.4201 37.142 43.5684C37.142 43.7167 37.1076 43.8546 37.042 43.9753C36.9765 44.096 36.8869 44.1891 36.7697 44.2615C36.5386 44.3994 36.2111 44.3994 35.98 44.2615H35.9766Z" fill="url(#paint2_linear_31_4564)"/>
<path d="M41.859 44.3752C41.9418 44.2442 41.9832 44.0959 41.9832 43.9338V42.6167C41.9832 42.5546 41.9625 42.5029 41.9211 42.4615C41.8418 42.3822 41.697 42.3788 41.6142 42.4615C41.5728 42.5029 41.5487 42.5546 41.5487 42.6167V43.9338C41.5487 44.02 41.528 44.0959 41.4832 44.1649C41.4384 44.2338 41.3763 44.2855 41.297 44.3235C41.1246 44.4062 40.8832 44.3993 40.7177 44.3235C40.635 44.2855 40.5695 44.2304 40.5246 44.1649C40.4798 44.0959 40.4557 44.0235 40.4557 43.9373V42.6201C40.4557 42.5581 40.435 42.5063 40.3936 42.465C40.3143 42.3857 40.1695 42.3822 40.0833 42.465C40.0419 42.5063 40.0178 42.5581 40.0178 42.6201V43.9373C40.0178 44.1028 40.0626 44.2511 40.1453 44.3821C40.2315 44.5097 40.3488 44.6131 40.5005 44.6855C40.6488 44.7579 40.8212 44.7924 41.0074 44.7924C41.1935 44.7924 41.3591 44.7579 41.5004 44.6855C41.6487 44.6131 41.7659 44.5097 41.8487 44.3821L41.859 44.3752Z" fill="url(#paint3_linear_31_4564)"/>
<path d="M45.7381 44.6925C45.8725 44.6407 45.9794 44.558 46.0587 44.4511C46.1415 44.3407 46.1829 44.2097 46.1829 44.0615C46.1829 43.8546 46.1139 43.6856 45.976 43.558C45.8415 43.4339 45.6519 43.3581 45.4105 43.3339C45.176 43.3098 45.0726 43.2581 45.0243 43.2201C44.9623 43.1684 44.9312 43.1063 44.9312 43.0305C44.9312 42.9477 44.9622 42.8926 45.0312 42.8477C45.1071 42.7995 45.2105 42.7753 45.3415 42.7753C45.445 42.7753 45.5312 42.796 45.5932 42.8339C45.6587 42.8719 45.7139 42.9271 45.7588 42.9995C45.7794 43.0339 45.807 43.065 45.8415 43.0857C45.9139 43.127 46.0001 43.127 46.0691 43.0857C46.1242 43.0477 46.1553 42.9926 46.1553 42.927C46.1553 42.8822 46.1415 42.8339 46.1104 42.7891C46.0277 42.6581 45.9243 42.5547 45.8036 42.4857C45.6829 42.4133 45.5312 42.3754 45.3588 42.3754C45.2036 42.3754 45.0588 42.3995 44.9312 42.4478C44.8002 42.4995 44.6933 42.5719 44.6209 42.6719C44.5416 42.7719 44.5037 42.8926 44.5037 43.027C44.5037 43.2201 44.5795 43.3822 44.7278 43.5063C44.8726 43.6304 45.0691 43.7029 45.3174 43.727C45.4691 43.7408 45.5829 43.7822 45.6553 43.8477C45.7243 43.9097 45.7553 43.9822 45.7553 44.0718C45.7553 44.1615 45.7174 44.227 45.6415 44.2787C45.5553 44.3373 45.4484 44.3649 45.3208 44.3649C45.2105 44.3649 45.114 44.3442 45.0243 44.2959C44.9381 44.2546 44.883 44.2028 44.8554 44.1442C44.8347 44.0994 44.8071 44.0649 44.7692 44.0408C44.7312 44.0166 44.6898 44.0028 44.645 44.0028C44.6243 44.0028 44.6105 44.0028 44.6036 44.0063C44.5554 44.0166 44.514 44.0373 44.483 44.0718C44.4519 44.1063 44.4347 44.1477 44.4347 44.1959C44.4347 44.2201 44.4416 44.2476 44.4554 44.2787C44.5174 44.4269 44.6312 44.5476 44.7967 44.6373C44.9553 44.7269 45.1347 44.7683 45.3277 44.7683C45.476 44.7683 45.6139 44.7407 45.745 44.6925H45.7381Z" fill="url(#paint4_linear_31_4564)"/>
<path d="M50.2792 44.6821C50.3206 44.6442 50.3413 44.5924 50.3413 44.5304C50.3413 44.4683 50.3206 44.42 50.2792 44.3821C50.2413 44.3442 50.1895 44.3269 50.1275 44.3269H49.0689V43.7614H49.8068C49.8654 43.7614 49.9171 43.7408 49.9585 43.7028C49.9999 43.6649 50.0206 43.6132 50.0206 43.5546C50.0206 43.496 49.9999 43.4442 49.9585 43.4063C49.9171 43.3684 49.8654 43.3511 49.8068 43.3511H49.0689V42.8063H50.1275C50.1895 42.8063 50.2413 42.7891 50.2792 42.7512C50.3206 42.7132 50.3413 42.6615 50.3413 42.6029C50.3413 42.5443 50.3206 42.4891 50.2792 42.4512C50.2378 42.4133 50.1861 42.3926 50.1275 42.3926H48.8517C48.7931 42.3926 48.7414 42.4133 48.7 42.4546C48.6586 42.496 48.6345 42.5477 48.6345 42.6098V44.52C48.6345 44.5786 48.6551 44.6338 48.6965 44.6752C48.7379 44.7166 48.7896 44.7373 48.8517 44.7373H50.1275C50.1895 44.7373 50.2413 44.7166 50.2792 44.6786V44.6821Z" fill="url(#paint5_linear_31_4564)"/>
<path d="M25.568 23.0825C25.2543 22.8412 24.9232 22.7274 24.5888 22.7343C24.3509 22.7412 24.1198 22.8067 23.9061 22.9308C23.9061 22.7688 23.8785 22.6136 23.8302 22.4653C23.7475 22.2205 23.5992 22.0102 23.3854 21.8482C23.1337 21.6551 22.851 21.5413 22.551 21.5102C22.2544 21.4826 21.9579 21.5344 21.6786 21.6688C21.3993 21.7999 21.1511 22.0102 20.9407 22.286L19.8684 23.6825C19.7787 23.7998 19.7443 23.9273 19.7581 24.0653C19.7753 24.2066 19.8443 24.3238 19.9649 24.4169L23.9233 27.4512C24.0198 27.5237 24.1268 27.5616 24.2405 27.5616C24.2647 27.5616 24.2888 27.5616 24.3129 27.5581C24.4543 27.5374 24.5715 27.4719 24.6577 27.3547L25.8232 25.8341C26.0577 25.5307 26.2059 25.2031 26.268 24.8652C26.3301 24.5238 26.299 24.1894 26.1783 23.879C26.0542 23.5687 25.8508 23.2998 25.5646 23.0825H25.568ZM25.306 24.5031C25.3198 24.7445 25.2301 24.9893 25.0405 25.2341L24.1957 26.3375L22.851 25.3065L23.6992 24.2032C23.8888 23.9515 24.1026 23.7963 24.3233 23.7377C24.5371 23.6825 24.7405 23.7308 24.9474 23.8894C25.175 24.0652 25.2922 24.2652 25.306 24.4997V24.5031ZM23.0441 23.1343C23.0509 23.3274 22.9751 23.5239 22.8199 23.7273L22.0682 24.71L20.9752 23.8722L21.7269 22.8895C21.8821 22.686 22.0545 22.5619 22.2372 22.5171C22.4131 22.4757 22.5855 22.5205 22.7648 22.6584C22.9441 22.7964 23.0372 22.9515 23.0406 23.1343H23.0441Z" fill="url(#paint6_linear_31_4564)"/>
<path d="M32.8021 19.9413C32.909 19.9413 33.0021 19.9172 33.0883 19.862C33.2124 19.7862 33.2917 19.6759 33.3262 19.5379C33.3607 19.4 33.3365 19.2655 33.2641 19.1483C33.2331 19.0966 33.1814 19.0448 33.109 18.9897L28.7368 15.8726C28.5437 15.7244 28.3368 15.7106 28.1334 15.8347C27.9989 15.9175 27.8507 16.0795 27.8955 16.3864L28.7368 21.6826C28.7541 21.7654 28.7782 21.8378 28.8127 21.893C28.8851 22.0102 28.992 22.0895 29.1265 22.1274C29.1713 22.1412 29.2161 22.1447 29.2575 22.1447C29.3506 22.1447 29.4402 22.1171 29.5264 22.0654C29.6126 22.0136 29.6781 21.9378 29.723 21.8447C29.7678 21.7516 29.7816 21.6481 29.7678 21.5378L29.5988 20.5344L31.6849 19.2414L32.5021 19.8448C32.5917 19.9103 32.6883 19.9448 32.7986 19.9448L32.8021 19.9413ZM30.8919 18.6552L29.4368 19.5552L29.0609 17.3105L30.8884 18.6552H30.8919Z" fill="url(#paint7_linear_31_4564)"/>
<path d="M40.5188 17.7002C40.5843 17.5864 40.6084 17.4622 40.5843 17.3312C40.5636 17.2174 40.5119 17.1174 40.4291 17.0347L38.181 14.8762L39.6395 12.7936C39.7395 12.6556 39.774 12.5005 39.743 12.3384C39.7223 12.2143 39.6637 12.1178 39.5671 12.0419C39.4671 11.966 39.3465 11.9419 39.2051 11.966C39.1258 11.9798 39.0568 12.0074 38.9982 12.0488C38.943 12.0867 38.8879 12.1488 38.8293 12.2281L37.0397 14.7693L36.7191 12.928C36.6949 12.7832 36.6225 12.6694 36.5053 12.5867C36.388 12.5039 36.257 12.4763 36.1122 12.5005C35.9743 12.5246 35.8605 12.597 35.7777 12.7108C35.6915 12.8281 35.6605 12.9591 35.6881 13.1073L36.5432 18.0208C36.5673 18.1656 36.6432 18.2794 36.7639 18.3622C36.857 18.4242 36.9535 18.4553 37.057 18.4553C37.088 18.4553 37.119 18.4553 37.1501 18.4484C37.2914 18.4242 37.4087 18.3484 37.4914 18.2346C37.5742 18.1174 37.6018 17.9864 37.5776 17.8415L37.2811 16.1485L37.5845 15.7175L39.7327 17.7691C39.8568 17.8967 40.0154 17.945 40.1981 17.9139C40.3361 17.8898 40.4464 17.8139 40.5153 17.6898L40.5188 17.7002Z" fill="url(#paint8_linear_31_4564)"/>
<path d="M49.1631 12.7729L45.8978 12.1247C45.7564 12.0971 45.6219 12.1212 45.5047 12.1971C45.384 12.273 45.3116 12.3867 45.2806 12.5385L44.3117 17.4312C44.2841 17.5761 44.3117 17.7071 44.3875 17.8278C44.4668 17.945 44.5806 18.0209 44.722 18.0484L47.9873 18.6967C48.0287 18.7036 48.0701 18.7105 48.1114 18.7105C48.208 18.7105 48.2976 18.6863 48.3769 18.6346C48.4907 18.5622 48.5631 18.4519 48.5907 18.307C48.6183 18.1691 48.5907 18.0381 48.5148 17.9312C48.439 17.8243 48.3252 17.7588 48.1804 17.7278L45.4288 17.183L45.7323 15.652L47.6666 16.0348C47.808 16.0624 47.939 16.0417 48.0528 15.9693C48.1701 15.8968 48.2425 15.7865 48.27 15.6486C48.2976 15.5107 48.27 15.3796 48.1907 15.2693C48.1114 15.1624 48.0011 15.0935 47.8597 15.0624L45.9254 14.6797L46.2184 13.2005L48.97 13.7453C49.1148 13.7729 49.2458 13.7556 49.3596 13.6866C49.4734 13.6177 49.5458 13.5108 49.5734 13.3694C49.601 13.2246 49.5768 13.097 49.501 12.9832C49.4251 12.8729 49.3113 12.804 49.1631 12.7764V12.7729Z" fill="url(#paint9_linear_31_4564)"/>
<path d="M56.4833 16.045L55.3593 15.3416C55.2352 15.2658 55.1041 15.2416 54.9662 15.2692C54.8283 15.3002 54.7179 15.3795 54.6352 15.5071L51.9905 19.7345C51.9112 19.8586 51.8905 19.993 51.9216 20.131C51.9526 20.2689 52.0353 20.3792 52.156 20.4585C52.2836 20.5378 52.4181 20.562 52.5595 20.5275C52.6939 20.493 52.8008 20.4137 52.8801 20.2896L53.7766 18.8552L54.5042 19.3103V21.6309C54.5042 21.824 54.5869 21.9791 54.749 22.0791C54.8421 22.1377 54.9386 22.1688 55.0317 22.1688C55.0662 22.1688 55.1007 22.1653 55.1352 22.155C55.2627 22.1239 55.3662 22.0516 55.4386 21.9378C55.4972 21.8447 55.5282 21.7378 55.5282 21.6171L55.5351 19.6379C55.8351 19.6551 56.1213 19.6 56.3903 19.4758C56.7075 19.331 56.9695 19.0931 57.1695 18.7759C57.3695 18.4552 57.4764 18.1207 57.4867 17.7794C57.4971 17.4346 57.4143 17.107 57.2385 16.8036C57.0626 16.5036 56.8109 16.2485 56.4833 16.045ZM54.3042 18.0173L55.28 16.4588L55.9592 16.8829C56.211 17.0415 56.3661 17.2415 56.4316 17.4967C56.4971 17.7484 56.4523 17.9897 56.3006 18.2345C56.1627 18.4552 55.9765 18.5793 55.7351 18.6207C55.4834 18.6621 55.2386 18.6035 54.9834 18.4449L54.3042 18.0208V18.0173Z" fill="url(#paint10_linear_31_4564)"/>
<path d="M64.7725 24.0962C64.6518 23.9411 64.4863 23.8687 64.2932 23.8893L61.2589 24.179L62.283 21.3447C62.3174 21.2412 62.3312 21.155 62.3278 21.0792C62.3243 20.9895 62.2899 20.9033 62.2209 20.8171C62.1347 20.7068 62.0244 20.6378 61.8865 20.6171C61.7485 20.593 61.6141 20.624 61.5003 20.7137C61.421 20.7757 61.3589 20.8688 61.3175 20.9861L60.1245 24.3755L58.8004 25.403C58.6832 25.4927 58.6177 25.6099 58.6004 25.7513C58.5832 25.8892 58.6177 26.0237 58.7039 26.134C58.7935 26.2513 58.9108 26.3168 59.0521 26.334C59.0763 26.334 59.097 26.3375 59.1211 26.3375C59.2349 26.3375 59.3418 26.2995 59.4383 26.2237L60.7624 25.1961L64.3518 24.8893C64.469 24.8755 64.5759 24.8376 64.6621 24.7686C64.769 24.6858 64.8311 24.5824 64.8552 24.4548C64.8794 24.3238 64.8483 24.1997 64.7656 24.0962H64.7725Z" fill="url(#paint11_linear_31_4564)"/>
<path d="M42.3254 32.08C42.3254 31.018 41.46 30.1526 40.398 30.1526C39.336 30.1526 38.4705 31.018 38.4705 32.08C38.4705 33.142 39.336 34.0075 40.398 34.0075C41.46 34.0075 42.3254 33.142 42.3254 32.08ZM39.598 32.08C39.598 31.6387 39.9566 31.2801 40.398 31.2801C40.8393 31.2801 41.1979 31.6387 41.1979 32.08C41.1979 32.5214 40.8393 32.88 40.398 32.88C39.9566 32.88 39.598 32.5214 39.598 32.08Z" fill="url(#paint12_linear_31_4564)"/>
<defs>
<linearGradient id="paint0_linear_31_4564" x1="-31.8288" y1="-36.1998" x2="111.7" y2="107.329" gradientUnits="userSpaceOnUse">
<stop stop-color="#272625"/>
<stop offset="0.15"/>
<stop offset="0.61" stop-color="#A29E92"/>
<stop offset="0.72" stop-color="white"/>
<stop offset="0.84" stop-color="#505050"/>
<stop offset="1"/>
</linearGradient>
<linearGradient id="paint1_linear_31_4564" x1="7.43465" y1="43.5697" x2="52.6791" y2="43.5697" gradientUnits="userSpaceOnUse">
<stop/>
<stop offset="0.15"/>
<stop offset="0.61"/>
<stop offset="0.72" stop-color="#212120"/>
<stop offset="0.84" stop-color="#040404"/>
<stop offset="1"/>
</linearGradient>
<linearGradient id="paint2_linear_31_4564" x1="7.95838" y1="43.5691" x2="60.9481" y2="43.5691" gradientUnits="userSpaceOnUse">
<stop/>
<stop offset="0.15"/>
<stop offset="0.61"/>
<stop offset="0.72" stop-color="#212120"/>
<stop offset="0.84" stop-color="#040404"/>
<stop offset="1"/>
</linearGradient>
<linearGradient id="paint3_linear_31_4564" x1="17.56" y1="43.5955" x2="61.2707" y2="43.5955" gradientUnits="userSpaceOnUse">
<stop/>
<stop offset="0.15"/>
<stop offset="0.61"/>
<stop offset="0.72" stop-color="#212120"/>
<stop offset="0.84" stop-color="#040404"/>
<stop offset="1"/>
</linearGradient>
<linearGradient id="paint4_linear_31_4564" x1="24.4591" y1="43.5708" x2="63.3386" y2="43.5708" gradientUnits="userSpaceOnUse">
<stop/>
<stop offset="0.15"/>
<stop offset="0.61"/>
<stop offset="0.72" stop-color="#212120"/>
<stop offset="0.84" stop-color="#040404"/>
<stop offset="1"/>
</linearGradient>
<linearGradient id="paint5_linear_31_4564" x1="29.1317" y1="43.5639" x2="67.091" y2="43.5639" gradientUnits="userSpaceOnUse">
<stop/>
<stop offset="0.15"/>
<stop offset="0.61"/>
<stop offset="0.72" stop-color="#212120"/>
<stop offset="0.84" stop-color="#040404"/>
<stop offset="1"/>
</linearGradient>
<linearGradient id="paint6_linear_31_4564" x1="-55.0207" y1="24.5296" x2="90.5193" y2="24.5296" gradientUnits="userSpaceOnUse">
<stop/>
<stop offset="0.15"/>
<stop offset="0.61"/>
<stop offset="0.72" stop-color="#212120"/>
<stop offset="0.84" stop-color="#040404"/>
<stop offset="1"/>
</linearGradient>
<linearGradient id="paint7_linear_31_4564" x1="-34.437" y1="18.9448" x2="86.8681" y2="18.9448" gradientUnits="userSpaceOnUse">
<stop/>
<stop offset="0.15"/>
<stop offset="0.61"/>
<stop offset="0.72" stop-color="#212120"/>
<stop offset="0.84" stop-color="#040404"/>
<stop offset="1"/>
</linearGradient>
<linearGradient id="paint8_linear_31_4564" x1="-20.4854" y1="15.2032" x2="88.8289" y2="15.2032" gradientUnits="userSpaceOnUse">
<stop/>
<stop offset="0.15"/>
<stop offset="0.61"/>
<stop offset="0.72" stop-color="#212120"/>
<stop offset="0.84" stop-color="#040404"/>
<stop offset="1"/>
</linearGradient>
<linearGradient id="paint9_linear_31_4564" x1="-16.0679" y1="15.4091" x2="101.432" y2="15.4091" gradientUnits="userSpaceOnUse">
<stop/>
<stop offset="0.15"/>
<stop offset="0.61"/>
<stop offset="0.72" stop-color="#212120"/>
<stop offset="0.84" stop-color="#040404"/>
<stop offset="1"/>
</linearGradient>
<linearGradient id="paint10_linear_31_4564" x1="-11.8503" y1="18.7104" x2="112.245" y2="18.7104" gradientUnits="userSpaceOnUse">
<stop/>
<stop offset="0.15"/>
<stop offset="0.61"/>
<stop offset="0.72" stop-color="#212120"/>
<stop offset="0.84" stop-color="#040404"/>
<stop offset="1"/>
</linearGradient>
<linearGradient id="paint11_linear_31_4564" x1="-11.8538" y1="23.4721" x2="112.245" y2="23.4721" gradientUnits="userSpaceOnUse">
<stop/>
<stop offset="0.15"/>
<stop offset="0.61"/>
<stop offset="0.72"/>
<stop offset="0.84" stop-color="#0C0B0A"/>
<stop offset="1"/>
</linearGradient>
<linearGradient id="paint12_linear_31_4564" x1="-13.4469" y1="32.0801" x2="110.649" y2="32.0801" gradientUnits="userSpaceOnUse">
<stop/>
<stop offset="0.15"/>
<stop offset="0.61"/>
<stop offset="0.72" stop-color="#535250"/>
<stop offset="0.84"/>
<stop offset="1"/>
</linearGradient>
</defs>
</svg>
