<svg width="26" height="26" viewBox="0 0 26 26" fill="none" xmlns="http://www.w3.org/2000/svg">
<path d="M13 0C5.8222 0 0 5.82218 0 13C0 20.1778 5.8222 26 13 26C20.1778 26 26 20.1778 26 13C26 5.82218 20.1778 0 13 0ZM19.1983 8.4551C19.1591 8.98012 18.8614 10.8216 18.5636 12.8119C18.1091 15.6329 17.6233 18.7125 17.6233 18.7125C17.6233 18.7125 17.5449 19.5744 16.9102 19.7233C16.2755 19.8722 15.2176 19.1983 15.0295 19.0494C14.8806 18.9397 12.2086 17.2472 11.2369 16.4165C10.9705 16.1893 10.6727 15.7426 11.2761 15.2176C12.6317 13.9795 14.2459 12.4358 15.2176 11.4641C15.6721 11.0097 16.1187 9.95961 14.2381 11.2369C11.5738 13.0784 8.94096 14.8023 8.94096 14.8023C8.94096 14.8023 8.33756 15.1784 7.20917 14.8415C6.08078 14.5045 4.76433 14.05 4.76433 14.05C4.76433 14.05 3.86318 13.4858 5.39905 12.8825C5.39905 12.8825 11.8951 10.2182 14.1519 9.27788C15.0139 8.90175 17.9446 7.70282 17.9446 7.70282C17.9446 7.70282 19.3002 7.17783 19.1826 8.4551H19.1983Z" fill="white"/>
</svg>
